<?xml version="1.0" standalone="no"?>
<!DOCTYPE svg PUBLIC "-//W3C//DTD SVG 20010904//EN"
 "http://www.w3.org/TR/2001/REC-SVG-20010904/DTD/svg10.dtd">
<svg version="1.0" xmlns="http://www.w3.org/2000/svg"
 width="900.000000pt" height="512.000000pt" viewBox="0 0 900.000000 512.000000"
 preserveAspectRatio="xMidYMid meet">

<g transform="translate(0.000000,512.000000) scale(0.100000,-0.100000)"
fill="#000000" stroke="none">
<path d="M3581 4624 c-125 -33 -249 -132 -304 -240 -13 -27 -73 -170 -132
-319 -59 -148 -109 -271 -110 -273 -1 -2 -172 -31 -379 -66 -348 -59 -382 -66
-450 -99 -129 -64 -229 -196 -256 -336 -14 -74 -14 -2508 0 -2582 25 -131 124
-266 239 -328 123 -65 -41 -61 2311 -61 2352 0 2188 -4 2311 61 115 62 214
197 239 328 14 74 14 2508 0 2582 -27 140 -127 272 -256 336 -68 33 -102 40
-450 99 -207 35 -378 64 -379 66 -2 2 -53 129 -115 283 -61 154 -123 301 -137
327 -54 100 -177 191 -300 223 -84 22 -1750 21 -1832 -1z m1782 -318 c18 -7
42 -24 54 -37 12 -13 87 -189 168 -392 81 -202 150 -369 155 -372 4 -2 209
-38 456 -79 470 -79 473 -80 518 -140 21 -27 21 -30 21 -1286 0 -1256 0 -1259
-21 -1286 -11 -15 -33 -37 -48 -48 l-27 -21 -2139 0 -2139 0 -27 21 c-15 11
-37 33 -48 48 -21 27 -21 30 -21 1286 0 1256 0 1259 21 1286 45 61 47 62 525
141 l454 76 149 373 c152 379 168 410 226 433 16 6 331 10 858 10 684 1 838
-1 865 -13z"/>
<path d="M4300 3504 c-229 -37 -458 -143 -632 -294 -562 -486 -599 -1334 -80
-1864 229 -235 521 -366 852 -382 656 -33 1230 441 1326 1096 96 659 -337
1282 -996 1431 -119 27 -346 33 -470 13z m431 -333 c182 -47 320 -128 454
-265 256 -262 340 -629 222 -976 -85 -249 -288 -469 -526 -570 -287 -123 -619
-100 -879 60 -453 279 -596 870 -320 1321 68 111 215 257 326 323 92 54 244
110 342 125 98 15 292 6 381 -18z"/>
<path d="M4360 2864 c-234 -50 -436 -254 -485 -489 -23 -108 -20 -161 10 -190
54 -55 135 -15 135 67 0 239 229 468 468 468 54 0 92 33 92 80 0 19 -9 40 -25
55 -20 21 -34 25 -77 24 -29 0 -82 -7 -118 -15z"/>
</g>
</svg>
