<?xml version="1.0" encoding="UTF-8"?>
<svg xmlns="http://www.w3.org/2000/svg" xmlns:xlink="http://www.w3.org/1999/xlink" width="150.69pt" height="150.69pt" viewBox="0 0 150.69 150.69" version="1.1">
<g id="surface1">
<path style=" stroke:none;fill-rule:nonzero;fill:rgb(60.398865%,61.199951%,60.798645%);fill-opacity:1;" d="M 89.621094 127.78125 C 90.515625 127.398438 91.5 127.128906 92.476563 127.269531 C 93.230469 127.371094 93.941406 127.804688 94.347656 128.449219 C 94.761719 129.089844 94.808594 129.90625 94.625 130.628906 C 94.398438 131.488281 93.886719 132.242188 93.277344 132.882813 C 94.246094 132.863281 95.25 133.058594 96.046875 133.636719 C 96.832031 134.1875 97.304688 135.101563 97.410156 136.046875 C 97.609375 137.457031 97.03125 138.90625 96.023438 139.894531 C 94.792969 141.09375 93.035156 141.753906 91.320313 141.644531 C 90.855469 141.609375 90.800781 141.082031 90.683594 140.730469 C 90.523438 140.070313 90.269531 139.421875 90.246094 138.738281 C 90.292969 138.738281 90.386719 138.746094 90.429688 138.746094 C 90.699219 139.210938 90.898438 139.738281 91.328125 140.089844 C 91.863281 140.589844 92.652344 140.707031 93.347656 140.550781 C 94.308594 140.351563 95.269531 139.851563 95.789063 138.988281 C 96.203125 138.320313 96.261719 137.484375 96.070313 136.734375 C 95.890625 135.960938 95.472656 135.222656 94.816406 134.761719 C 94.140625 134.269531 93.289063 134.085938 92.46875 134.0625 C 92.050781 134.046875 91.636719 134.15625 91.21875 134.101563 C 91.207031 134.058594 91.1875 133.964844 91.175781 133.921875 C 91.453125 133.660156 91.816406 133.519531 92.101563 133.269531 C 92.804688 132.683594 93.359375 131.851563 93.425781 130.921875 C 93.511719 129.847656 92.902344 128.703125 91.878906 128.300781 C 91.15625 128.019531 90.335938 128.152344 89.652344 128.480469 C 89.050781 128.765625 88.535156 129.324219 88.460938 130.011719 C 88.386719 130.441406 88.574219 130.855469 88.585938 131.28125 C 88.542969 131.277344 88.460938 131.273438 88.417969 131.273438 C 88.113281 130.832031 87.96875 130.304688 87.761719 129.816406 C 87.675781 129.558594 87.480469 129.222656 87.738281 129.003906 C 88.277344 128.472656 88.941406 128.085938 89.621094 127.78125 "/>
<path style=" stroke:none;fill-rule:nonzero;fill:rgb(60.398865%,61.199951%,60.798645%);fill-opacity:1;" d="M 45.917969 127.378906 C 46.460938 127.21875 47.066406 127.234375 47.585938 127.46875 C 48.332031 127.792969 48.886719 128.535156 48.96875 129.351563 C 49.042969 130.03125 48.804688 130.742188 48.328125 131.238281 C 47.480469 132.152344 45.894531 132.1875 45.015625 131.300781 C 44.441406 130.765625 44.179688 129.929688 44.335938 129.160156 C 44.480469 128.335938 45.117188 127.625 45.917969 127.378906 "/>
<path style=" stroke:none;fill-rule:nonzero;fill:rgb(60.398865%,61.199951%,60.798645%);fill-opacity:1;" d="M 104.027344 127.363281 C 105.09375 127.039063 106.339844 127.570313 106.804688 128.589844 C 107.160156 129.324219 107.097656 130.253906 106.632813 130.925781 C 106.292969 131.421875 105.753906 131.785156 105.160156 131.898438 C 104.433594 132.058594 103.640625 131.835938 103.097656 131.332031 C 102.53125 130.8125 102.246094 130.007813 102.371094 129.25 C 102.496094 128.367188 103.175781 127.601563 104.027344 127.363281 "/>
<path style=" stroke:none;fill-rule:nonzero;fill:rgb(60.398865%,61.199951%,60.798645%);fill-opacity:1;" d="M 58.9375 128.839844 C 59.503906 128.675781 60.042969 128.394531 60.640625 128.355469 C 60.683594 128.820313 60.484375 129.257813 60.359375 129.695313 C 59.511719 132.535156 58.75 135.402344 57.96875 138.265625 C 57.773438 139.023438 57.578125 139.785156 57.449219 140.5625 C 57.402344 140.863281 57.359375 141.230469 57.613281 141.460938 C 57.992188 141.78125 58.503906 141.859375 58.953125 142.050781 C 59.105469 142.074219 59.136719 142.230469 59.199219 142.351563 C 58.335938 142.273438 57.523438 141.933594 56.691406 141.714844 C 55.625 141.390625 54.519531 141.210938 53.457031 140.875 C 53.3125 140.882813 53.28125 140.554688 53.445313 140.613281 C 54.0625 140.644531 54.664063 140.917969 55.292969 140.839844 C 55.777344 140.757813 55.890625 140.203125 56.023438 139.816406 C 56.921875 136.730469 57.703125 133.617188 58.558594 130.519531 C 58.605469 130.308594 58.734375 129.980469 58.460938 129.871094 C 57.585938 129.765625 56.746094 130.160156 55.878906 130.175781 C 55.882813 130.101563 55.886719 129.957031 55.890625 129.886719 C 56.898438 129.511719 57.925781 129.191406 58.9375 128.839844 "/>
<path style=" stroke:none;fill-rule:nonzero;fill:rgb(60.398865%,61.199951%,60.798645%);fill-opacity:1;" d="M 78.429688 130.132813 C 80.496094 129.898438 82.554688 129.628906 84.617188 129.382813 C 84.734375 129.367188 84.855469 129.375 84.96875 129.410156 C 85.101563 129.574219 84.984375 129.777344 84.925781 129.953125 C 84.25 131.390625 83.765625 132.910156 83.300781 134.429688 C 82.722656 136.351563 82.210938 138.296875 81.863281 140.277344 C 81.769531 140.925781 81.636719 141.585938 81.722656 142.242188 C 81.738281 142.445313 81.820313 142.691406 81.648438 142.851563 C 81.195313 143.347656 80.628906 143.785156 79.960938 143.929688 C 79.851563 143.191406 80.101563 142.472656 80.230469 141.753906 C 81.097656 137.953125 82.339844 134.242188 83.84375 130.652344 C 82.425781 130.820313 81.011719 131 79.59375 131.171875 C 79.070313 131.230469 78.535156 131.34375 78.09375 131.640625 C 77.6875 131.910156 77.460938 132.382813 77.390625 132.855469 C 77.34375 133.132813 77.367188 133.441406 77.167969 133.667969 C 76.953125 133.132813 77.015625 132.542969 76.996094 131.980469 C 77.015625 131.371094 76.914063 130.761719 77.003906 130.15625 C 77.472656 130.09375 77.957031 130.207031 78.429688 130.132813 "/>
<path style=" stroke:none;fill-rule:nonzero;fill:rgb(60.398865%,61.199951%,60.798645%);fill-opacity:1;" d="M 67.074219 130.601563 C 68.632813 129.574219 70.933594 129.59375 72.328125 130.902344 C 73.304688 131.816406 73.730469 133.183594 73.75 134.492188 C 73.753906 136.300781 73.195313 138.097656 72.183594 139.589844 C 70.96875 141.410156 69.195313 142.816406 67.234375 143.757813 C 66.972656 143.894531 66.683594 143.972656 66.390625 143.984375 C 66.414063 143.808594 66.394531 143.582031 66.605469 143.523438 C 69.390625 142.160156 71.492188 139.421875 71.980469 136.347656 C 72.164063 135.1875 72.175781 133.980469 71.847656 132.847656 C 71.621094 132.105469 71.222656 131.371094 70.5625 130.9375 C 69.824219 130.4375 68.789063 130.414063 68.03125 130.886719 C 67.371094 131.296875 66.96875 132.027344 66.84375 132.785156 C 66.746094 133.480469 66.777344 134.207031 67.003906 134.878906 C 67.40625 136.132813 68.742188 137.140625 70.089844 136.847656 C 70.429688 136.785156 70.738281 136.628906 71.070313 136.535156 C 71.050781 136.929688 70.65625 137.101563 70.347656 137.253906 C 68.777344 137.933594 66.6875 137.382813 65.8125 135.867188 C 64.78125 134.144531 65.414063 131.699219 67.074219 130.601563 "/>
<path style=" stroke:none;fill-rule:nonzero;fill:rgb(0.799561%,1.199341%,1.199341%);fill-opacity:1;" d="M 72.734375 4.164063 C 73.1875 3.984375 73.84375 4.25 73.828125 4.800781 C 73.925781 5.386719 73.273438 5.878906 72.730469 5.644531 C 72.097656 5.429688 72.09375 4.382813 72.734375 4.164063 "/>
<path style=" stroke:none;fill-rule:nonzero;fill:rgb(0.799561%,1.199341%,1.199341%);fill-opacity:1;" d="M 69.164063 4.273438 C 69.640625 4.109375 70.265625 4.449219 70.195313 5 C 70.265625 5.644531 69.425781 6.066406 68.929688 5.679688 C 68.4375 5.328125 68.554688 4.421875 69.164063 4.273438 "/>
<path style=" stroke:none;fill-rule:nonzero;fill:rgb(0.799561%,1.199341%,1.199341%);fill-opacity:1;" d="M 76.144531 6.984375 C 76.609375 6.964844 77.082031 6.863281 77.546875 6.933594 L 77.652344 7.050781 C 77.425781 7.269531 77.058594 7.171875 76.792969 7.335938 C 76.410156 7.523438 76.394531 8.011719 76.390625 8.382813 C 76.394531 10.125 76.492188 11.871094 76.542969 13.613281 C 76.597656 15.121094 76.632813 16.6875 76.058594 18.113281 C 75.4375 19.675781 73.871094 20.726563 72.234375 20.957031 C 70.933594 21.128906 69.542969 21.027344 68.371094 20.394531 C 67.472656 19.921875 66.792969 19.089844 66.421875 18.15625 C 65.992188 17.085938 65.898438 15.917969 65.871094 14.777344 C 65.785156 12.738281 65.765625 10.699219 65.621094 8.664063 C 65.597656 8.375 65.535156 8.050781 65.292969 7.855469 C 64.941406 7.609375 64.488281 7.660156 64.082031 7.613281 C 63.890625 7.414063 64.226563 7.347656 64.367188 7.359375 C 65.078125 7.320313 65.792969 7.363281 66.507813 7.335938 C 67.09375 7.300781 67.675781 7.234375 68.261719 7.222656 C 68.371094 7.21875 68.472656 7.253906 68.554688 7.335938 C 68.46875 7.539063 68.21875 7.492188 68.046875 7.542969 C 67.792969 7.574219 67.515625 7.671875 67.40625 7.925781 C 67.234375 8.347656 67.296875 8.816406 67.285156 9.261719 C 67.328125 10.867188 67.390625 12.472656 67.449219 14.078125 C 67.488281 15.40625 67.503906 16.78125 68.015625 18.03125 C 68.507813 19.261719 69.707031 20.222656 71.050781 20.296875 C 71.539063 20.308594 72.039063 20.324219 72.519531 20.191406 C 73.515625 19.925781 74.441406 19.265625 74.878906 18.316406 C 75.390625 17.214844 75.433594 15.972656 75.421875 14.777344 C 75.335938 12.710938 75.296875 10.636719 75.179688 8.570313 C 75.140625 8.171875 75.136719 7.644531 74.707031 7.449219 C 74.363281 7.238281 73.902344 7.414063 73.570313 7.226563 C 73.582031 7.1875 73.609375 7.109375 73.625 7.070313 C 74.457031 6.941406 75.304688 7.046875 76.144531 6.984375 "/>
<path style=" stroke:none;fill-rule:nonzero;fill:rgb(0.799561%,1.199341%,1.199341%);fill-opacity:1;" d="M 86.097656 8.203125 C 86.175781 8.003906 86.210938 7.707031 86.464844 7.664063 C 86.570313 7.765625 86.65625 7.894531 86.726563 8.027344 C 88.238281 10.929688 89.78125 13.816406 91.316406 16.710938 C 92.152344 18.300781 92.964844 19.90625 93.808594 21.492188 C 94.5625 18.476563 95.289063 15.453125 96.035156 12.4375 C 96.121094 11.984375 96.3125 11.457031 96.027344 11.039063 C 95.714844 10.699219 95.230469 10.617188 94.816406 10.46875 C 94.824219 10.410156 94.835938 10.292969 94.84375 10.238281 C 95.398438 10.285156 95.921875 10.507813 96.460938 10.65625 C 97.113281 10.886719 97.800781 10.976563 98.46875 11.160156 C 98.636719 11.183594 98.769531 11.289063 98.894531 11.398438 C 98.578125 11.578125 98.230469 11.339844 97.898438 11.429688 C 97.609375 11.46875 97.441406 11.742188 97.339844 11.988281 C 97.15625 12.445313 97.054688 12.933594 96.917969 13.40625 C 96.058594 16.574219 95.195313 19.738281 94.332031 22.90625 C 94.214844 23.351563 94.097656 23.800781 93.910156 24.222656 C 93.570313 24.109375 93.4375 23.75 93.257813 23.476563 C 90.789063 19.28125 88.550781 14.953125 86.34375 10.613281 C 85.652344 13.515625 84.953125 16.414063 84.261719 19.316406 C 84.171875 19.835938 83.992188 20.398438 84.222656 20.902344 C 84.496094 21.308594 85.03125 21.359375 85.445313 21.550781 C 85.433594 21.597656 85.414063 21.695313 85.402344 21.742188 C 84.839844 21.738281 84.3125 21.480469 83.769531 21.339844 C 82.96875 21.050781 82.105469 20.980469 81.304688 20.6875 C 81.300781 20.632813 81.292969 20.519531 81.289063 20.464844 C 81.65625 20.472656 82.023438 20.621094 82.386719 20.519531 C 82.597656 20.441406 82.710938 20.226563 82.808594 20.035156 C 82.988281 19.652344 83.097656 19.238281 83.21875 18.832031 C 84.179688 15.289063 85.132813 11.742188 86.097656 8.203125 "/>
<path style=" stroke:none;fill-rule:nonzero;fill:rgb(0.799561%,1.199341%,1.199341%);fill-opacity:1;" d="M 108.199219 12.796875 C 108.625 12.574219 109.277344 12.800781 109.320313 13.324219 C 109.410156 13.824219 108.960938 14.320313 108.445313 14.222656 C 107.734375 14.183594 107.589844 13.089844 108.199219 12.796875 "/>
<path style=" stroke:none;fill-rule:nonzero;fill:rgb(0.799561%,1.199341%,1.199341%);fill-opacity:1;" d="M 45.945313 15.726563 C 45.925781 16 45.96875 16.273438 46.003906 16.542969 C 46.199219 18.09375 46.375 19.644531 46.574219 21.195313 C 47.664063 20.695313 48.753906 20.195313 49.832031 19.675781 C 49.5625 19.355469 49.257813 19.0625 48.960938 18.769531 C 47.949219 17.761719 46.984375 16.703125 45.945313 15.726563 Z M 45 13.222656 C 45.164063 13.027344 45.378906 13.292969 45.523438 13.398438 C 48.292969 16.050781 51.035156 18.730469 53.824219 21.363281 C 54.375 21.882813 54.941406 22.425781 55.644531 22.730469 C 56.0625 22.921875 56.546875 22.84375 56.960938 22.671875 C 57.085938 22.621094 57.324219 22.484375 57.351563 22.722656 C 57.109375 22.984375 56.746094 23.066406 56.441406 23.230469 C 55.589844 23.59375 54.773438 24.050781 53.878906 24.300781 C 53.914063 24.136719 54.007813 23.980469 54.007813 23.808594 C 53.914063 23.617188 53.742188 23.480469 53.601563 23.328125 C 52.640625 22.390625 51.671875 21.460938 50.714844 20.519531 C 50.570313 20.390625 50.410156 20.113281 50.1875 20.273438 C 49.085938 20.78125 47.988281 21.296875 46.886719 21.808594 C 46.804688 21.871094 46.605469 21.890625 46.660156 22.042969 C 46.757813 23.136719 46.902344 24.222656 47.011719 25.3125 C 47.074219 25.796875 47.117188 26.316406 47.386719 26.734375 C 47.71875 27.03125 48.152344 26.746094 48.507813 26.65625 C 48.507813 26.714844 48.515625 26.832031 48.515625 26.890625 C 48.035156 27.191406 47.476563 27.332031 46.96875 27.578125 C 46.382813 27.875 45.804688 28.183594 45.210938 28.457031 C 45.066406 28.53125 44.734375 28.625 44.816406 28.34375 C 45.144531 28.128906 45.550781 27.996094 45.773438 27.652344 C 46.097656 27.175781 46.089844 26.570313 46.042969 26.019531 C 45.714844 22.210938 45.386719 18.402344 45.058594 14.597656 C 45.027344 14.140625 44.945313 13.683594 45 13.222656 "/>
<path style=" stroke:none;fill-rule:nonzero;fill:rgb(0.799561%,1.199341%,1.199341%);fill-opacity:1;" d="M 105.441406 14.976563 C 105.398438 14.703125 105.675781 14.808594 105.816406 14.886719 C 106.546875 15.285156 107.230469 15.769531 107.988281 16.121094 C 108.359375 16.320313 108.765625 16.476563 109.105469 16.734375 C 109.121094 16.796875 109.152344 16.914063 109.167969 16.972656 C 108.796875 16.925781 108.457031 16.644531 108.070313 16.730469 C 107.667969 16.886719 107.46875 17.300781 107.253906 17.644531 C 106.285156 19.304688 105.375 20.992188 104.4375 22.671875 C 103.726563 23.964844 102.980469 25.242188 102.332031 26.570313 C 102.167969 26.960938 101.898438 27.367188 102.015625 27.804688 C 102.207031 28.226563 102.691406 28.371094 103.019531 28.65625 C 103.03125 28.703125 103.050781 28.796875 103.058594 28.84375 C 102.828125 28.878906 102.632813 28.75 102.441406 28.644531 C 101.953125 28.359375 101.460938 28.070313 100.976563 27.777344 C 100.390625 27.445313 99.78125 27.167969 99.195313 26.84375 C 99.027344 26.785156 98.988281 26.628906 99.011719 26.46875 C 99.316406 26.554688 99.597656 26.75 99.921875 26.753906 C 100.398438 26.597656 100.640625 26.101563 100.914063 25.71875 C 101.929688 24.070313 102.824219 22.351563 103.777344 20.667969 C 104.464844 19.421875 105.171875 18.183594 105.839844 16.925781 C 106.007813 16.582031 106.214844 16.234375 106.222656 15.84375 C 106.183594 15.410156 105.734375 15.222656 105.441406 14.976563 "/>
<path style=" stroke:none;fill-rule:nonzero;fill:rgb(0.799561%,1.199341%,1.199341%);fill-opacity:1;" d="M 35.253906 18.765625 C 35.539063 18.558594 35.769531 18.160156 36.140625 18.152344 L 36.1875 18.28125 C 35.949219 18.582031 35.59375 18.828125 35.523438 19.234375 C 35.441406 19.6875 35.601563 20.144531 35.71875 20.582031 C 36.589844 23.320313 37.457031 26.0625 38.308594 28.808594 C 38.738281 30.175781 39.148438 31.550781 39.515625 32.933594 C 39.546875 33.082031 39.609375 33.257813 39.488281 33.382813 C 39.261719 33.445313 39.050781 33.316406 38.851563 33.226563 C 35.109375 31.222656 31.371094 29.222656 27.628906 27.21875 C 27.304688 27.046875 26.964844 26.890625 26.59375 26.863281 C 26.070313 26.867188 25.628906 27.183594 25.226563 27.484375 C 24.976563 27.519531 25.082031 27.25 25.199219 27.164063 C 25.707031 26.710938 26.253906 26.304688 26.785156 25.886719 C 27.40625 25.414063 27.914063 24.808594 28.5625 24.375 C 28.613281 24.363281 28.71875 24.34375 28.769531 24.332031 C 28.816406 24.753906 28.0625 24.914063 28.207031 25.386719 C 28.503906 25.8125 29.039063 25.984375 29.464844 26.257813 C 32.375 27.890625 35.28125 29.53125 38.1875 31.167969 C 37.496094 28.921875 36.734375 26.699219 35.96875 24.480469 C 35.535156 23.273438 35.128906 22.050781 34.632813 20.867188 C 34.519531 20.617188 34.386719 20.269531 34.058594 20.269531 C 33.742188 20.3125 33.527344 20.59375 33.265625 20.753906 C 33.03125 20.683594 33.152344 20.484375 33.285156 20.390625 C 33.921875 19.824219 34.652344 19.371094 35.253906 18.765625 "/>
<path style=" stroke:none;fill-rule:nonzero;fill:rgb(0.799561%,1.199341%,1.199341%);fill-opacity:1;" d="M 113.664063 19.503906 C 113.984375 19.5 114.1875 19.765625 114.40625 19.953125 C 115.035156 20.527344 115.613281 21.152344 116.285156 21.675781 C 116.644531 21.992188 117.0625 22.261719 117.34375 22.664063 C 117.300781 22.699219 117.222656 22.761719 117.179688 22.792969 C 116.914063 22.632813 116.703125 22.378906 116.394531 22.292969 C 116.023438 22.289063 115.921875 22.722656 115.789063 22.992188 C 114.472656 26.324219 113.160156 29.65625 111.851563 32.992188 C 114.898438 31.566406 117.902344 30.042969 120.871094 28.457031 C 121.277344 28.195313 121.789063 28.035156 122.070313 27.621094 C 122.273438 27.140625 121.511719 26.957031 121.523438 26.5625 C 121.570313 26.558594 121.667969 26.554688 121.714844 26.554688 C 122.410156 27.054688 122.933594 27.761719 123.621094 28.273438 C 123.910156 28.535156 124.289063 28.738281 124.480469 29.089844 L 124.453125 29.230469 C 124.0625 29.136719 123.808594 28.722656 123.378906 28.703125 C 122.765625 28.691406 122.203125 29.003906 121.660156 29.253906 C 119.914063 30.09375 118.160156 30.921875 116.410156 31.753906 C 114.363281 32.714844 112.328125 33.703125 110.242188 34.570313 C 110.117188 34.605469 109.957031 34.695313 109.847656 34.589844 C 109.710938 34.390625 109.839844 34.15625 109.894531 33.953125 C 111.296875 30.152344 112.699219 26.347656 114.105469 22.542969 C 114.265625 22.09375 114.46875 21.648438 114.507813 21.171875 C 114.535156 20.792969 114.355469 20.4375 114.132813 20.148438 C 113.964844 19.941406 113.714844 19.78125 113.664063 19.503906 "/>
<path style=" stroke:none;fill-rule:nonzero;fill:rgb(0.799561%,1.199341%,1.199341%);fill-opacity:1;" d="M 127.511719 33.105469 C 127.640625 33.058594 127.734375 33.085938 127.808594 33.1875 C 128.242188 33.765625 128.625 34.378906 129.011719 34.988281 C 129.6875 35.957031 130.371094 36.921875 131.054688 37.886719 C 131.382813 38.339844 131.707031 38.808594 132.179688 39.125 C 131.796875 39.410156 131.324219 39.53125 130.9375 39.804688 C 130.613281 39.976563 130.320313 40.273438 129.933594 40.273438 C 129.890625 40.027344 130.140625 39.929688 130.28125 39.785156 C 130.515625 39.59375 130.722656 39.308594 130.65625 38.984375 C 130.539063 38.378906 130.152344 37.871094 129.820313 37.363281 C 129.511719 36.910156 129.207031 36.453125 128.886719 36.003906 C 127.417969 36.988281 125.984375 38.023438 124.535156 39.03125 C 124.96875 39.675781 125.429688 40.300781 125.878906 40.933594 C 126.109375 41.246094 126.335938 41.570313 126.632813 41.828125 C 126.8125 42 127.078125 41.972656 127.300781 42.054688 C 127.378906 42.230469 127.144531 42.277344 127.035156 42.347656 C 126.371094 42.636719 125.773438 43.042969 125.152344 43.414063 C 125.027344 43.5 124.894531 43.425781 124.925781 43.269531 C 125.230469 43 125.664063 42.742188 125.648438 42.277344 C 125.601563 41.878906 125.359375 41.542969 125.152344 41.210938 C 124.761719 40.613281 124.386719 40.007813 123.960938 39.433594 C 122.953125 40.121094 121.960938 40.828125 120.957031 41.515625 C 120.4375 41.898438 119.855469 42.21875 119.449219 42.726563 C 119.214844 43.015625 119.273438 43.421875 119.4375 43.726563 C 119.722656 44.308594 120.117188 44.828125 120.507813 45.34375 C 120.84375 45.738281 121.246094 46.203125 121.8125 46.1875 C 122.273438 46.191406 122.648438 45.847656 123.105469 45.851563 C 123.019531 46.164063 122.695313 46.273438 122.445313 46.414063 C 122.015625 46.632813 121.601563 46.894531 121.140625 47.03125 C 120.871094 47.136719 120.652344 46.902344 120.519531 46.703125 C 119.734375 45.597656 118.980469 44.472656 118.257813 43.328125 C 117.832031 42.640625 117.316406 42.007813 116.832031 41.359375 C 116.730469 41.238281 116.59375 40.988281 116.851563 40.953125 C 117.140625 41.199219 117.375 41.6875 117.832031 41.546875 C 118.507813 41.335938 119.078125 40.890625 119.671875 40.519531 C 122.113281 38.835938 124.542969 37.140625 126.964844 35.425781 C 127.320313 35.132813 127.796875 34.902344 127.953125 34.441406 C 128.070313 33.929688 127.597656 33.566406 127.511719 33.105469 "/>
<path style=" stroke:none;fill-rule:nonzero;fill:rgb(0.799561%,1.199341%,1.199341%);fill-opacity:1;" d="M 20.941406 35.578125 C 20.296875 35.675781 19.664063 35.882813 19.09375 36.207031 C 17.851563 36.90625 16.976563 38.15625 16.59375 39.515625 C 16.292969 40.59375 16.402344 41.78125 16.910156 42.78125 C 17.601563 44.183594 18.871094 45.195313 20.222656 45.921875 C 21.742188 46.730469 23.546875 47.128906 25.238281 46.6875 C 26.890625 46.277344 28.300781 45.011719 28.886719 43.410156 C 29.308594 42.285156 29.269531 41 28.765625 39.910156 C 28.152344 38.578125 27.011719 37.578125 25.792969 36.804688 C 24.363281 35.898438 22.648438 35.335938 20.941406 35.578125 Z M 21.621094 34.03125 C 22.882813 33.804688 24.195313 34.007813 25.355469 34.53125 C 27.03125 35.289063 28.476563 36.605469 29.273438 38.273438 C 30.007813 39.769531 30.148438 41.539063 29.683594 43.140625 C 29.300781 44.464844 28.539063 45.664063 27.566406 46.636719 C 26.4375 47.742188 24.898438 48.433594 23.3125 48.460938 C 21.636719 48.523438 19.964844 47.96875 18.609375 46.988281 C 17.046875 45.816406 15.941406 44.019531 15.703125 42.070313 C 15.511719 40.554688 15.90625 39 16.691406 37.699219 C 17.757813 35.894531 19.511719 34.390625 21.621094 34.03125 "/>
<path style=" stroke:none;fill-rule:nonzero;fill:rgb(0.799561%,1.199341%,1.199341%);fill-opacity:1;" d="M 135.898438 49.113281 C 134.105469 49.804688 132.304688 50.484375 130.511719 51.179688 C 130.257813 51.261719 130.3125 51.578125 130.347656 51.78125 C 130.472656 52.503906 130.671875 53.234375 131.0625 53.863281 C 131.476563 54.53125 132.3125 54.777344 133.0625 54.730469 C 134.007813 54.65625 134.929688 54.316406 135.703125 53.769531 C 136.390625 53.289063 136.917969 52.539063 136.992188 51.691406 C 137.082031 50.808594 136.71875 49.957031 136.289063 49.207031 C 136.21875 49.035156 136.042969 49.039063 135.898438 49.113281 Z M 135.535156 45.929688 C 135.679688 45.953125 135.828125 46.011719 135.863281 46.171875 C 136.203125 47 136.429688 47.875 136.800781 48.695313 C 137.222656 49.722656 137.710938 50.75 137.875 51.859375 C 137.984375 52.617188 137.9375 53.441406 137.535156 54.113281 C 137.121094 54.871094 136.386719 55.433594 135.546875 55.640625 C 134.097656 56.054688 132.578125 55.605469 131.269531 54.96875 C 130.300781 56.609375 129.273438 58.21875 128.40625 59.914063 C 128.015625 60.691406 127.710938 61.566406 127.855469 62.445313 C 127.898438 62.796875 128.070313 63.121094 128.109375 63.472656 C 128.0625 63.480469 127.96875 63.496094 127.917969 63.503906 C 127.703125 63.191406 127.621094 62.820313 127.476563 62.480469 C 127.171875 61.664063 126.753906 60.820313 126.910156 59.925781 C 127.085938 58.964844 127.667969 58.152344 128.160156 57.332031 C 128.863281 56.164063 129.636719 55.042969 130.351563 53.882813 C 130.074219 53.109375 129.808594 52.328125 129.492188 51.570313 C 128.144531 52.09375 126.769531 52.578125 125.457031 53.195313 C 125.113281 53.375 124.664063 53.578125 124.652344 54.027344 C 124.6875 54.425781 124.871094 54.792969 124.933594 55.1875 C 124.882813 55.195313 124.777344 55.214844 124.730469 55.226563 C 124.25 54.328125 124.0625 53.304688 123.625 52.390625 C 123.453125 51.921875 123.148438 51.480469 123.144531 50.96875 C 123.582031 51.03125 123.503906 51.710938 123.960938 51.785156 C 124.4375 51.851563 124.90625 51.660156 125.363281 51.53125 C 127.117188 50.929688 128.835938 50.230469 130.566406 49.578125 C 131.957031 49.035156 133.359375 48.527344 134.738281 47.960938 C 135.09375 47.796875 135.53125 47.664063 135.703125 47.277344 C 135.847656 46.820313 135.585938 46.378906 135.535156 45.929688 "/>
<path style=" stroke:none;fill-rule:nonzero;fill:rgb(0.799561%,1.199341%,1.199341%);fill-opacity:1;" d="M 11.359375 54.28125 C 10.726563 54.402344 10.132813 54.734375 9.726563 55.234375 C 9.207031 55.871094 8.988281 56.699219 8.878906 57.496094 C 8.835938 57.703125 9.066406 57.761719 9.21875 57.808594 C 11.082031 58.355469 12.929688 58.964844 14.800781 59.488281 C 15.097656 59.300781 15.230469 58.945313 15.382813 58.640625 C 15.664063 57.976563 15.96875 57.265625 15.859375 56.527344 C 15.703125 55.714844 15.007813 55.140625 14.300781 54.789063 C 13.398438 54.351563 12.359375 54.105469 11.359375 54.28125 Z M 24.09375 51.296875 C 24.289063 51.15625 24.335938 51.464844 24.269531 51.585938 C 24.027344 52.390625 23.816406 53.207031 23.480469 53.980469 C 23.246094 54.484375 22.835938 54.898438 22.355469 55.179688 C 21.648438 55.582031 20.875 55.839844 20.113281 56.125 C 19.015625 56.535156 17.90625 56.910156 16.792969 57.289063 C 16.636719 57.351563 16.425781 57.398438 16.386719 57.597656 C 16.152344 58.316406 15.917969 59.039063 15.6875 59.761719 C 17.144531 60.230469 18.605469 60.703125 20.101563 61.019531 C 20.414063 61.078125 20.808594 61.09375 21.019531 60.8125 C 21.234375 60.484375 21.347656 60.105469 21.492188 59.746094 C 21.546875 59.753906 21.65625 59.777344 21.710938 59.785156 C 21.558594 60.734375 21.113281 61.605469 20.882813 62.53125 C 20.722656 63.046875 20.648438 63.597656 20.40625 64.082031 C 20.359375 64.078125 20.265625 64.070313 20.21875 64.066406 C 20.1875 63.691406 20.480469 63.214844 20.109375 62.929688 C 19.550781 62.511719 18.859375 62.335938 18.210938 62.101563 C 15.347656 61.207031 12.476563 60.332031 9.597656 59.472656 C 9.160156 59.375 8.703125 59.15625 8.25 59.296875 C 7.769531 59.5 7.753906 60.105469 7.457031 60.457031 C 7.210938 60.4375 7.351563 60.164063 7.375 60.023438 C 7.558594 59.429688 7.769531 58.84375 7.96875 58.253906 C 8.382813 56.921875 8.617188 55.507813 9.335938 54.289063 C 9.769531 53.554688 10.441406 52.925781 11.28125 52.710938 C 12.296875 52.390625 13.402344 52.703125 14.253906 53.292969 C 15.226563 53.953125 15.878906 54.972656 16.394531 56.007813 C 18.152344 55.324219 19.929688 54.691406 21.640625 53.898438 C 22.441406 53.535156 23.238281 53.027344 23.683594 52.238281 C 23.863281 51.945313 23.949219 51.605469 24.09375 51.296875 "/>
<path style=" stroke:none;fill-rule:nonzero;fill:rgb(0.799561%,1.199341%,1.199341%);fill-opacity:1;" d="M 136.148438 64.46875 C 137.320313 63.460938 139.226563 63.210938 140.480469 64.203125 C 141.472656 64.976563 141.855469 66.273438 141.921875 67.484375 C 141.988281 68.117188 141.851563 68.75 141.910156 69.386719 C 141.285156 69.433594 140.660156 69.484375 140.046875 69.574219 C 139.828125 69.609375 139.613281 69.613281 139.402344 69.578125 C 139.429688 69.53125 139.484375 69.433594 139.515625 69.386719 C 139.917969 69.222656 140.394531 69.144531 140.703125 68.808594 C 141.183594 68.257813 141.257813 67.476563 141.175781 66.777344 C 141.113281 66.082031 140.789063 65.367188 140.175781 64.996094 C 139.613281 64.632813 138.882813 64.636719 138.269531 64.851563 C 137.605469 65.089844 137.160156 65.667969 136.773438 66.226563 C 135.914063 67.5 135.304688 68.964844 134.164063 70.03125 C 132.867188 71.308594 130.636719 71.472656 129.179688 70.375 C 128.222656 69.675781 127.746094 68.5 127.589844 67.355469 C 127.492188 66.53125 127.480469 65.671875 127.746094 64.878906 C 127.78125 64.742188 127.882813 64.621094 128.027344 64.601563 C 128.761719 64.453125 129.515625 64.410156 130.261719 64.363281 C 130.417969 64.355469 130.691406 64.332031 130.640625 64.574219 C 130.269531 64.691406 129.867188 64.707031 129.523438 64.898438 C 128.867188 65.203125 128.433594 65.875 128.339844 66.585938 C 128.242188 67.335938 128.324219 68.140625 128.730469 68.792969 C 129.128906 69.445313 129.863281 69.878906 130.632813 69.894531 C 131.449219 69.925781 132.269531 69.585938 132.816406 68.980469 C 134.09375 67.601563 134.691406 65.695313 136.148438 64.46875 "/>
<path style=" stroke:none;fill-rule:nonzero;fill:rgb(0.799561%,1.199341%,1.199341%);fill-opacity:1;" d="M 6.03125 67.753906 C 6.066406 67.695313 6.144531 67.582031 6.179688 67.523438 C 6.371094 67.875 6.25 68.347656 6.554688 68.644531 C 6.839844 68.898438 7.257813 68.878906 7.613281 68.914063 C 9.167969 68.980469 10.722656 68.976563 12.28125 69.019531 C 13.875 69.035156 15.535156 69.039063 17.03125 69.679688 C 18.585938 70.324219 19.609375 71.921875 19.792969 73.566406 C 19.933594 74.898438 19.761719 76.308594 19.070313 77.480469 C 18.519531 78.421875 17.570313 79.09375 16.53125 79.398438 C 14.992188 79.871094 13.363281 79.6875 11.78125 79.691406 C 10.363281 79.667969 8.945313 79.628906 7.523438 79.628906 C 7.140625 79.660156 6.6875 79.597656 6.382813 79.882813 C 6.054688 80.207031 6.109375 80.699219 6.035156 81.113281 C 5.878906 81.242188 5.78125 81.097656 5.785156 80.941406 C 5.78125 79.9375 5.929688 78.933594 5.855469 77.929688 C 5.855469 77.570313 5.839844 77.214844 5.863281 76.859375 C 5.835938 76.695313 6.105469 76.605469 6.117188 76.796875 C 6.15625 77.207031 6.175781 77.777344 6.671875 77.894531 C 7.875 78.113281 9.113281 78.003906 10.332031 78.074219 C 11.886719 78.0625 13.441406 78.191406 14.996094 78.085938 C 16.175781 78 17.421875 77.648438 18.214844 76.714844 C 19.054688 75.863281 19.25 74.574219 19.066406 73.433594 C 18.867188 72.386719 18.226563 71.386719 17.257813 70.90625 C 15.996094 70.257813 14.539063 70.226563 13.152344 70.1875 C 11.855469 70.179688 10.5625 70.132813 9.265625 70.132813 C 8.585938 70.101563 7.90625 70.089844 7.226563 70.132813 C 6.945313 70.148438 6.625 70.214844 6.460938 70.46875 C 6.21875 70.820313 6.265625 71.273438 6.1875 71.675781 C 5.824219 71.636719 5.976563 71.207031 5.957031 70.960938 C 6.042969 69.890625 6.019531 68.824219 6.03125 67.753906 "/>
<path style=" stroke:none;fill-rule:nonzero;fill:rgb(0.799561%,1.199341%,1.199341%);fill-opacity:1;" d="M 128.429688 75.632813 C 128.480469 75.644531 128.574219 75.667969 128.625 75.679688 C 128.683594 76.042969 128.597656 76.558594 129.03125 76.714844 C 129.816406 77 130.675781 76.960938 131.496094 77.03125 C 134.371094 77.140625 137.246094 77.242188 140.121094 77.328125 C 140.609375 77.308594 141.238281 77.40625 141.582031 76.964844 C 141.800781 76.703125 141.648438 76.246094 141.886719 76.039063 C 141.921875 76.058594 141.988281 76.089844 142.023438 76.105469 C 142.074219 76.972656 141.894531 77.839844 141.914063 78.710938 C 141.90625 79.171875 141.941406 79.636719 141.898438 80.097656 C 141.878906 80.214844 141.808594 80.257813 141.6875 80.230469 C 141.554688 79.875 141.691406 79.394531 141.339844 79.140625 C 140.953125 78.898438 140.472656 78.929688 140.035156 78.886719 C 137.519531 78.773438 134.996094 78.707031 132.476563 78.609375 C 131.4375 78.59375 130.394531 78.511719 129.355469 78.628906 C 129.058594 78.652344 128.734375 78.796875 128.640625 79.101563 C 128.535156 79.46875 128.519531 79.851563 128.472656 80.230469 C 128.414063 80.210938 128.300781 80.171875 128.246094 80.152344 C 128.191406 79.058594 128.398438 77.964844 128.355469 76.871094 C 128.382813 76.460938 128.285156 76.027344 128.429688 75.632813 "/>
<path style=" stroke:none;fill-rule:nonzero;fill:rgb(0.799561%,1.199341%,1.199341%);fill-opacity:1;" d="M 143.847656 77.121094 C 144.289063 76.949219 144.894531 77.214844 144.898438 77.734375 C 144.964844 78.261719 144.429688 78.722656 143.917969 78.5625 C 143.242188 78.425781 143.207031 77.335938 143.847656 77.121094 "/>
<path style=" stroke:none;fill-rule:nonzero;fill:rgb(0.799561%,1.199341%,1.199341%);fill-opacity:1;" d="M 19.230469 81.664063 C 19.542969 81.585938 19.527344 81.984375 19.609375 82.1875 C 19.835938 83.175781 20.289063 84.175781 20.074219 85.203125 C 19.851563 86.070313 19.425781 86.871094 18.96875 87.632813 C 17.804688 89.589844 16.578125 91.511719 15.316406 93.40625 C 17.042969 92.941406 18.785156 92.519531 20.488281 91.96875 C 20.875 91.808594 21.378906 91.710938 21.558594 91.289063 C 21.667969 90.875 21.476563 90.464844 21.476563 90.054688 C 21.632813 89.992188 21.738281 90.089844 21.765625 90.238281 C 22.050781 91.199219 22.195313 92.195313 22.53125 93.140625 C 22.621094 93.515625 22.816406 93.878906 22.789063 94.269531 C 22.75 94.28125 22.664063 94.304688 22.625 94.316406 C 22.429688 94.03125 22.414063 93.566406 22.042969 93.441406 C 21.558594 93.332031 21.066406 93.476563 20.589844 93.566406 C 19.066406 93.90625 17.566406 94.339844 16.058594 94.734375 C 14.339844 95.203125 12.613281 95.636719 10.902344 96.132813 C 10.566406 96.25 10.167969 96.328125 9.941406 96.636719 C 9.6875 97.050781 9.898438 97.535156 9.9375 97.976563 C 9.792969 98.070313 9.695313 98.03125 9.65625 97.863281 C 9.5 97.363281 9.394531 96.851563 9.273438 96.34375 C 9.125 95.613281 8.847656 94.917969 8.660156 94.195313 C 8.625 94.050781 8.625 93.90625 8.664063 93.761719 C 9.007813 93.921875 8.960938 94.390625 9.238281 94.625 C 9.566406 94.921875 10.039063 94.765625 10.425781 94.695313 C 11.980469 94.320313 13.515625 93.882813 15.058594 93.476563 C 13.078125 92.378906 11.105469 91.261719 9.113281 90.179688 C 8.828125 90.042969 8.53125 89.863281 8.203125 89.890625 C 7.917969 89.921875 7.914063 90.242188 7.808594 90.445313 C 7.605469 90.421875 7.59375 90.203125 7.546875 90.046875 C 7.4375 89.519531 7.335938 88.988281 7.164063 88.476563 C 7.023438 87.976563 6.816406 87.484375 6.757813 86.960938 C 6.816406 86.957031 6.929688 86.949219 6.988281 86.945313 C 7.25 87.851563 7.96875 88.542969 8.773438 89 C 10.632813 90.113281 12.492188 91.222656 14.386719 92.277344 C 15.621094 90.261719 16.847656 88.246094 18.011719 86.191406 C 18.523438 85.167969 19.199219 84.179688 19.316406 83.015625 C 19.390625 82.5625 19.261719 82.113281 19.230469 81.664063 "/>
<path style=" stroke:none;fill-rule:nonzero;fill:rgb(0.799561%,1.199341%,1.199341%);fill-opacity:1;" d="M 139.183594 85.773438 C 139.296875 85.515625 139.558594 85.734375 139.730469 85.792969 C 140.3125 86.097656 140.945313 86.328125 141.472656 86.734375 C 140.921875 87.472656 140.746094 88.402344 140.503906 89.273438 C 140.117188 90.820313 139.730469 92.363281 139.347656 93.910156 C 139.078125 95.019531 138.722656 96.121094 138.695313 97.273438 C 138.058594 97.15625 137.445313 96.941406 136.820313 96.777344 C 136.613281 96.710938 136.3125 96.695313 136.3125 96.410156 C 136.722656 96.386719 137.207031 96.59375 137.546875 96.257813 C 137.992188 95.835938 138.164063 95.207031 138.347656 94.636719 C 138.550781 93.882813 138.746094 93.125 138.949219 92.371094 C 135.726563 91.582031 132.507813 90.757813 129.277344 89.980469 C 128.636719 89.84375 127.996094 89.667969 127.335938 89.644531 C 127.082031 89.625 126.8125 89.726563 126.683594 89.957031 C 126.496094 90.300781 126.402344 90.6875 126.269531 91.054688 C 126.222656 91.019531 126.125 90.949219 126.078125 90.914063 C 126.132813 90.320313 126.359375 89.757813 126.5 89.183594 C 126.753906 88.398438 126.867188 87.585938 127.066406 86.789063 C 127.085938 86.621094 127.210938 86.523438 127.378906 86.511719 C 127.386719 86.898438 127.144531 87.417969 127.53125 87.691406 C 128.183594 88.109375 128.957031 88.253906 129.6875 88.46875 C 132.894531 89.292969 136.113281 90.070313 139.324219 90.875 C 139.539063 89.96875 139.753906 89.0625 139.964844 88.15625 C 140.058594 87.710938 140.167969 87.242188 140.058594 86.792969 C 139.921875 86.339844 139.476563 86.105469 139.183594 85.773438 "/>
<path style=" stroke:none;fill-rule:nonzero;fill:rgb(0.799561%,1.199341%,1.199341%);fill-opacity:1;" d="M 123.566406 97.507813 C 123.667969 97.335938 123.730469 97.015625 123.996094 97.0625 C 124.042969 97.375 123.800781 97.65625 123.765625 97.96875 C 123.984375 98.46875 124.492188 98.726563 124.929688 99.007813 C 127.507813 100.472656 130.152344 101.808594 132.765625 103.210938 C 133.28125 103.476563 133.789063 103.765625 134.332031 103.980469 C 134.5625 104.070313 134.851563 104.117188 135.074219 103.972656 C 135.4375 103.761719 135.566406 103.335938 135.859375 103.050781 C 135.890625 103.089844 135.957031 103.167969 135.988281 103.210938 C 135.691406 103.96875 135.210938 104.640625 134.820313 105.359375 C 134.28125 106.367188 133.746094 107.382813 133.210938 108.394531 C 132.960938 108.882813 132.6875 109.378906 132.625 109.9375 C 132.277344 109.792969 132.035156 109.492188 131.714844 109.304688 C 131.363281 109.0625 130.964844 108.890625 130.652344 108.601563 C 130.519531 108.390625 130.78125 108.339844 130.917969 108.445313 C 131.253906 108.578125 131.65625 108.789063 132.003906 108.554688 C 132.59375 108.128906 132.894531 107.433594 133.25 106.820313 C 133.460938 106.40625 133.726563 106.015625 133.902344 105.585938 C 132.359375 104.730469 130.792969 103.917969 129.230469 103.097656 C 128.832031 103.847656 128.4375 104.601563 128.046875 105.355469 C 127.894531 105.667969 127.734375 105.980469 127.667969 106.320313 C 127.660156 106.554688 127.808594 106.773438 127.777344 107.015625 C 127.453125 106.9375 127.238281 106.660156 126.96875 106.492188 C 126.503906 106.144531 125.964844 105.90625 125.507813 105.554688 L 125.542969 105.398438 C 125.917969 105.398438 126.257813 105.75 126.652344 105.632813 C 127.097656 105.5 127.316406 105.050781 127.546875 104.6875 C 127.910156 104.054688 128.289063 103.425781 128.617188 102.773438 C 127.535156 102.183594 126.441406 101.613281 125.359375 101.027344 C 124.808594 100.75 124.273438 100.402344 123.667969 100.257813 C 123.121094 100.128906 122.738281 100.644531 122.484375 101.050781 C 122.109375 101.710938 121.703125 102.375 121.519531 103.117188 C 121.375 103.59375 121.632813 104.085938 121.996094 104.386719 C 122.179688 104.558594 122.476563 104.683594 122.4375 104.984375 C 121.890625 104.824219 121.476563 104.414063 121.015625 104.109375 C 120.765625 103.90625 120.359375 103.695313 120.445313 103.3125 C 120.589844 102.871094 120.859375 102.484375 121.066406 102.070313 C 121.871094 100.53125 122.859375 99.097656 123.566406 97.507813 "/>
<path style=" stroke:none;fill-rule:nonzero;fill:rgb(0.799561%,1.199341%,1.199341%);fill-opacity:1;" d="M 22.972656 100.863281 C 24.367188 100.621094 25.816406 101.148438 26.855469 102.078125 C 27.71875 102.886719 28.347656 103.933594 28.695313 105.0625 C 28.992188 106.039063 28.984375 107.121094 28.578125 108.066406 C 28.070313 109.289063 27.023438 110.183594 25.945313 110.898438 C 24.191406 112.011719 22.410156 113.089844 20.660156 114.214844 C 20.277344 114.492188 19.789063 114.710938 19.578125 115.164063 C 19.46875 115.585938 19.734375 115.964844 19.910156 116.324219 C 20.054688 116.4375 19.804688 116.648438 19.71875 116.503906 C 19.171875 115.765625 18.804688 114.90625 18.269531 114.15625 C 18.007813 113.765625 17.71875 113.386719 17.492188 112.972656 C 17.355469 112.886719 17.570313 112.601563 17.648438 112.746094 C 17.898438 112.992188 18.078125 113.390625 18.46875 113.421875 C 18.984375 113.390625 19.398438 113.046875 19.835938 112.8125 C 21.496094 111.796875 23.144531 110.761719 24.796875 109.730469 C 25.71875 109.132813 26.640625 108.46875 27.242188 107.53125 C 27.757813 106.734375 27.941406 105.730469 27.742188 104.804688 C 27.402344 103.570313 26.527344 102.445313 25.3125 101.984375 C 24.523438 101.652344 23.632813 101.714844 22.832031 101.964844 C 21.496094 102.382813 20.339844 103.1875 19.160156 103.910156 C 17.839844 104.746094 16.496094 105.546875 15.195313 106.414063 C 14.898438 106.625 14.503906 106.863281 14.492188 107.273438 C 14.464844 107.714844 14.84375 108.03125 14.890625 108.445313 C 14.710938 108.542969 14.597656 108.363281 14.515625 108.238281 C 14.027344 107.457031 13.621094 106.628906 13.0625 105.890625 C 12.910156 105.617188 12.621094 105.375 12.640625 105.042969 L 12.777344 105.015625 C 13.042969 105.226563 13.1875 105.59375 13.539063 105.6875 C 13.976563 105.773438 14.359375 105.46875 14.730469 105.277344 C 16.375 104.285156 17.992188 103.25 19.628906 102.242188 C 20.664063 101.621094 21.769531 101.054688 22.972656 100.863281 "/>
<path style=" stroke:none;fill-rule:nonzero;fill:rgb(0.799561%,1.199341%,1.199341%);fill-opacity:1;" d="M 117.03125 108.023438 C 117.417969 107.753906 117.824219 107.394531 118.3125 107.382813 C 118.953125 107.785156 119.476563 108.351563 120.03125 108.863281 C 120.15625 108.996094 120.429688 109.210938 120.179688 109.367188 C 119.8125 109.132813 119.492188 108.820313 119.066406 108.695313 C 118.371094 108.441406 117.597656 108.664063 117.023438 109.089844 C 116.382813 109.574219 115.835938 110.253906 115.699219 111.066406 C 115.546875 111.941406 115.980469 112.859375 116.703125 113.359375 C 117.21875 113.765625 117.871094 113.941406 118.519531 113.9375 C 119.992188 113.898438 121.410156 113.402344 122.882813 113.335938 C 123.671875 113.300781 124.496094 113.382813 125.203125 113.769531 C 125.917969 114.15625 126.550781 114.757813 126.851563 115.523438 C 127.152344 116.273438 127.101563 117.132813 126.808594 117.875 C 126.519531 118.59375 126.035156 119.21875 125.484375 119.757813 C 125.074219 120.191406 124.5625 120.507813 124.140625 120.929688 C 123.738281 120.5625 123.347656 120.179688 122.929688 119.828125 C 122.730469 119.65625 122.515625 119.5 122.363281 119.285156 C 122.394531 119.246094 122.460938 119.167969 122.492188 119.128906 C 122.933594 119.339844 123.347656 119.699219 123.867188 119.652344 C 124.597656 119.59375 125.199219 119.101563 125.660156 118.570313 C 126.144531 118.023438 126.441406 117.242188 126.21875 116.523438 C 125.925781 115.570313 124.9375 114.898438 123.945313 114.949219 C 122.085938 114.980469 120.308594 115.800781 118.429688 115.617188 C 116.5625 115.488281 114.902344 113.828125 114.886719 111.9375 C 114.851563 110.363281 115.859375 108.976563 117.03125 108.023438 "/>
<path style=" stroke:none;fill-rule:nonzero;fill:rgb(0.799561%,1.199341%,1.199341%);fill-opacity:1;" d="M 37.417969 112.609375 C 37.480469 112.035156 38.054688 111.660156 38.601563 111.648438 C 39.433594 111.621094 40.25 111.976563 40.890625 112.492188 C 41.039063 112.566406 41.085938 112.898438 40.847656 112.851563 C 40.441406 112.660156 40.066406 112.339844 39.589844 112.339844 C 38.90625 112.277344 38.371094 113.066406 38.597656 113.695313 C 38.667969 114.097656 39.003906 114.398438 39.058594 114.804688 C 38.488281 114.820313 37.917969 114.765625 37.347656 114.757813 C 38.53125 115.992188 39.460938 117.550781 39.636719 119.277344 C 39.886719 121.066406 39.269531 122.882813 38.15625 124.273438 C 37.195313 125.5625 35.785156 126.503906 34.238281 126.921875 C 32.976563 127.257813 31.609375 127.214844 30.386719 126.742188 C 28.828125 126.15625 27.539063 125.039063 26.410156 123.84375 C 25.757813 123.160156 25.25 122.359375 24.601563 121.675781 C 24.519531 121.566406 24.394531 121.472656 24.371094 121.332031 C 24.621094 121 24.984375 120.773438 25.253906 120.460938 C 25.761719 119.992188 26.164063 119.421875 26.707031 119 C 26.960938 118.882813 26.964844 119.195313 26.816406 119.308594 C 26.253906 119.910156 25.867188 120.785156 26.128906 121.613281 C 26.539063 122.914063 27.46875 123.996094 28.523438 124.835938 C 29.242188 125.417969 30.050781 125.917969 30.960938 126.136719 C 31.832031 126.339844 32.761719 126.234375 33.59375 125.921875 C 34.671875 125.507813 35.554688 124.71875 36.324219 123.875 C 37.371094 122.734375 38.011719 121.226563 38.09375 119.683594 C 38.203125 117.800781 37.402344 115.902344 36 114.644531 C 35.464844 114.164063 34.90625 113.6875 34.242188 113.398438 C 33.707031 113.15625 33.074219 113.0625 32.519531 113.285156 C 32.082031 113.433594 31.714844 113.710938 31.332031 113.953125 C 31.070313 114.039063 31.121094 113.695313 31.273438 113.605469 C 31.878906 113.070313 32.503906 112.546875 33.191406 112.113281 C 33.519531 111.898438 33.910156 112.109375 34.222656 112.261719 C 35.171875 112.789063 36.027344 113.480469 36.816406 114.230469 C 37.253906 114.226563 37.691406 114.234375 38.128906 114.214844 C 37.765625 113.757813 37.355469 113.230469 37.417969 112.609375 "/>
<path style=" stroke:none;fill-rule:nonzero;fill:rgb(0.799561%,1.199341%,1.199341%);fill-opacity:1;" d="M 110.382813 115.308594 C 110.484375 115.207031 110.71875 115.210938 110.660156 115.40625 C 110.4375 115.695313 109.980469 115.984375 110.175781 116.40625 C 110.484375 117.140625 111.046875 117.726563 111.527344 118.351563 C 113.34375 120.53125 115.171875 122.703125 117.011719 124.867188 C 117.34375 125.21875 117.628906 125.65625 118.089844 125.84375 C 118.511719 125.984375 118.847656 125.605469 119.191406 125.433594 C 119.464844 125.496094 119.203125 125.773438 119.078125 125.859375 C 118.226563 126.523438 117.378906 127.191406 116.601563 127.933594 C 116.433594 128.042969 116.246094 128.332031 116.03125 128.171875 C 116.074219 127.855469 116.457031 127.714844 116.558594 127.410156 C 116.726563 126.945313 116.3125 126.554688 116.070313 126.203125 C 114.402344 124.160156 112.683594 122.15625 110.988281 120.136719 C 110.351563 119.394531 109.734375 118.628906 109.019531 117.964844 C 108.796875 117.757813 108.480469 117.546875 108.167969 117.683594 C 107.800781 117.851563 107.496094 118.132813 107.148438 118.339844 C 107.097656 118.210938 107.066406 118.046875 107.210938 117.964844 C 107.765625 117.476563 108.359375 117.035156 108.9375 116.578125 C 109.429688 116.164063 109.878906 115.703125 110.382813 115.308594 "/>
<path style=" stroke:none;fill-rule:nonzero;fill:rgb(0.799561%,1.199341%,1.199341%);fill-opacity:1;" d="M 118.753906 127.757813 C 119.15625 127.535156 119.792969 127.707031 119.882813 128.199219 C 120.035156 128.730469 119.546875 129.296875 118.996094 129.167969 C 118.316406 129.105469 118.171875 128.0625 118.753906 127.757813 "/>
<path style=" stroke:none;fill-rule:nonzero;fill:rgb(2.398682%,41.19873%,21.199036%);fill-opacity:1;" d="M 62.449219 28.351563 C 71.117188 26.234375 80.371094 26.554688 88.859375 29.316406 C 97.21875 32.011719 104.785156 37.070313 110.5 43.730469 C 115.09375 49.058594 118.496094 55.40625 120.363281 62.191406 C 115.382813 62.191406 110.398438 62.191406 105.417969 62.191406 C 102.351563 54.660156 96.472656 48.320313 89.191406 44.703125 C 82.378906 41.253906 74.386719 40.246094 66.921875 41.835938 C 59.664063 43.339844 52.957031 47.335938 48.144531 52.972656 C 45.660156 55.867188 43.664063 59.179688 42.285156 62.734375 C 39.339844 70.246094 39.230469 78.820313 41.96875 86.40625 C 44.710938 94.109375 50.359375 100.714844 57.523438 104.648438 C 59.925781 105.976563 62.484375 107.019531 65.140625 107.714844 C 65.277344 109.300781 65.84375 110.851563 66.785156 112.136719 C 67.828125 113.578125 69.3125 114.703125 70.992188 115.292969 C 72.847656 115.960938 74.925781 115.976563 76.789063 115.335938 C 78.527344 114.757813 80.066406 113.609375 81.136719 112.121094 C 82.070313 110.839844 82.632813 109.300781 82.769531 107.722656 C 89.363281 105.976563 95.378906 102.160156 99.800781 96.976563 C 102.097656 94.292969 103.976563 91.25 105.332031 87.988281 C 107.226563 83.449219 108.113281 78.488281 107.890625 73.574219 C 112.617188 73.574219 117.34375 73.5625 122.070313 73.582031 C 122.191406 77.972656 121.734375 82.386719 120.660156 86.652344 C 118.789063 94.1875 115.023438 101.238281 109.832031 107.011719 C 104.894531 112.515625 98.679688 116.875 91.804688 119.601563 C 83.40625 122.96875 74.046875 123.84375 65.15625 122.207031 C 57.789063 120.859375 50.757813 117.742188 44.804688 113.207031 C 37.988281 108.035156 32.582031 101.019531 29.359375 93.089844 C 26.203125 85.394531 25.148438 76.863281 26.246094 68.621094 C 27.257813 60.882813 30.226563 53.414063 34.785156 47.078125 C 39.015625 41.171875 44.597656 36.234375 50.988281 32.777344 C 54.597656 30.816406 58.460938 29.328125 62.449219 28.351563 "/>
<path style=" stroke:none;fill-rule:nonzero;fill:rgb(2.398682%,41.19873%,21.199036%);fill-opacity:1;" d="M 57.890625 49.40625 C 62.628906 49.40625 67.367188 49.402344 72.105469 49.40625 C 72.101563 57.46875 72.109375 65.535156 72.101563 73.597656 C 67.375 73.59375 62.648438 73.597656 57.921875 73.597656 C 57.640625 76.820313 58.355469 80.125 59.972656 82.929688 C 62.042969 86.582031 65.597656 89.355469 69.648438 90.460938 C 73.351563 91.496094 77.417969 91.144531 80.886719 89.484375 C 83.988281 88.007813 86.59375 85.511719 88.199219 82.46875 C 89.636719 79.765625 90.257813 76.644531 89.992188 73.597656 C 85.265625 73.597656 80.539063 73.597656 75.808594 73.597656 C 75.808594 65.53125 75.808594 57.46875 75.808594 49.402344 C 80.546875 49.40625 85.285156 49.402344 90.027344 49.40625 C 90.023438 57.460938 90.027344 65.515625 90.023438 73.570313 C 94.742188 73.574219 99.464844 73.574219 104.183594 73.570313 C 104.402344 78.203125 103.550781 82.890625 101.671875 87.132813 C 98.847656 93.582031 93.683594 98.96875 87.355469 102.0625 C 85.734375 102.871094 84.03125 103.519531 82.292969 104.023438 C 81.753906 102.566406 80.851563 101.234375 79.652344 100.242188 C 78.351563 99.136719 76.722656 98.425781 75.027344 98.226563 C 72.652344 97.921875 70.164063 98.648438 68.328125 100.183594 C 67.09375 101.1875 66.167969 102.535156 65.617188 104.023438 C 62.074219 103.003906 58.71875 101.339844 55.773438 99.125 C 52.28125 96.507813 49.363281 93.125 47.292969 89.28125 C 44.699219 84.5 43.472656 79.003906 43.730469 73.570313 C 48.449219 73.574219 53.167969 73.570313 57.890625 73.574219 C 57.890625 65.515625 57.890625 57.460938 57.890625 49.40625 "/>
<path style=" stroke:none;fill-rule:nonzero;fill:rgb(60.398865%,61.199951%,60.798645%);fill-opacity:1;" d="M 75.34375 149.722656 C 34.265625 149.722656 0.964844 116.421875 0.964844 75.347656 C 0.964844 34.269531 34.265625 0.96875 75.34375 0.96875 C 116.421875 0.96875 149.722656 34.269531 149.722656 75.347656 C 149.722656 116.421875 116.421875 149.722656 75.34375 149.722656 Z M 75.34375 0.00390625 C 33.730469 0.00390625 0 33.734375 0 75.347656 C 0 116.953125 33.730469 150.691406 75.34375 150.691406 C 116.953125 150.691406 150.6875 116.953125 150.6875 75.347656 C 150.6875 33.734375 116.953125 0.00390625 75.34375 0.00390625 "/>
</g>
</svg>
