<?xml version="1.0" encoding="utf-8"?>
<!-- Generator: Adobe Illustrator 22.1.0, SVG Export Plug-In . SVG Version: 6.00 Build 0)  -->
<svg version="1.1" id="Layer_1" xmlns="http://www.w3.org/2000/svg" xmlns:xlink="http://www.w3.org/1999/xlink" x="0px" y="0px"
	 viewBox="0 0 100 90" style="enable-background:new 0 0 100 90;" xml:space="preserve">
<style type="text/css">
	.st0{fill:#252525;}
</style>
<path class="st0" d="M86.5,65.2V37.1h0l8.6-4L50,12.3L5,33.1l18.4,8.5v15.1c0,7.3,11.7,13,26.6,13s26.6-5.7,26.6-13V41.6l6.2-2.9
	v26.4c-2.9,0.8-5,3.4-5,6.5c0,3.7,3,6.8,6.8,6.8c3.7,0,6.8-3,6.8-6.8C91.4,68.6,89.3,66,86.5,65.2z M50,16.3l36.4,16.8L50,50
	L13.6,33.1L50,16.3z M73,56.7c0,4.4-9.4,9.3-23,9.3c-13.6,0-23-4.9-23-9.3V43.3L50,54l23-10.7V56.7z M84.6,74.9
	c-1.7,0-3.2-1.4-3.2-3.2s1.4-3.2,3.2-3.2s3.2,1.4,3.2,3.2C87.8,73.5,86.4,74.9,84.6,74.9z"/>
</svg>
