<svg xmlns="http://www.w3.org/2000/svg" xmlns:xlink="http://www.w3.org/1999/xlink" width="500" zoomAndPan="magnify" viewBox="0 0 375 374.999991" height="500" preserveAspectRatio="xMidYMid meet" version="1.0"><defs><g/><clipPath id="id1"><path d="M 37.5 37.4375 L 337.5 37.4375 L 337.5 337.4375 L 37.5 337.4375 Z M 37.5 37.4375 " clip-rule="nonzero"/></clipPath><clipPath id="id2"><path d="M 206 258 L 211 258 L 211 262.5 L 206 262.5 Z M 206 258 " clip-rule="nonzero"/></clipPath><clipPath id="id3"><path d="M 157 112.5 L 162 112.5 L 162 117 L 157 117 Z M 157 112.5 " clip-rule="nonzero"/></clipPath><clipPath id="id4"><path d="M 112.5 181 L 184 181 L 184 253 L 112.5 253 Z M 112.5 181 " clip-rule="nonzero"/></clipPath><clipPath id="id5"><path d="M 151 112.5 L 224 112.5 L 224 184 L 151 184 Z M 151 112.5 " clip-rule="nonzero"/></clipPath><clipPath id="id6"><path d="M 191 181 L 262.5 181 L 262.5 253 L 191 253 Z M 191 181 " clip-rule="nonzero"/></clipPath></defs><g clip-path="url(#id1)"><path fill="#763880" d="M 187.5 337.4375 C 104.789062 337.4375 37.5 270.148438 37.5 187.4375 C 37.5 104.730469 104.789062 37.4375 187.5 37.4375 C 270.210938 37.4375 337.5 104.730469 337.5 187.4375 C 337.5 270.148438 270.210938 337.4375 187.5 337.4375 Z M 187.5 40.097656 C 106.253906 40.097656 40.15625 106.195312 40.15625 187.4375 C 40.15625 268.683594 106.253906 334.777344 187.5 334.777344 C 268.746094 334.777344 334.839844 268.683594 334.839844 187.4375 C 334.839844 106.195312 268.746094 40.097656 187.5 40.097656 Z M 187.5 40.097656 " fill-opacity="1" fill-rule="nonzero"/></g><g fill="#545454" fill-opacity="1"><g transform="translate(66.877588, 215.341406)"><g><path d="M 15.9375 8.53125 C 15.125 8.78125 14.304688 9.039062 13.484375 9.3125 C 12.671875 9.582031 11.84375 9.859375 11 10.140625 L 10.0625 10.453125 C 9.238281 10.734375 8.421875 11.007812 7.609375 11.28125 C 6.796875 11.550781 5.984375 11.835938 5.171875 12.140625 L 5.546875 13.953125 L 4.765625 14.21875 L 2.953125 8.84375 L 3.734375 8.578125 L 4.546875 10.28125 C 5.335938 10.03125 6.144531 9.765625 6.96875 9.484375 C 7.800781 9.210938 8.695312 8.921875 9.65625 8.609375 L 7.578125 2.40625 C 6.628906 2.71875 5.738281 3.007812 4.90625 3.28125 C 4.082031 3.5625 3.273438 3.84375 2.484375 4.125 L 2.875 5.96875 L 2.09375 6.234375 L 0.28125 0.84375 L 1.0625 0.578125 L 1.875 2.265625 C 2.664062 2.023438 3.472656 1.765625 4.296875 1.484375 C 5.117188 1.210938 5.945312 0.9375 6.78125 0.65625 L 7.71875 0.34375 C 8.550781 0.0703125 9.367188 -0.195312 10.171875 -0.46875 C 10.984375 -0.738281 11.804688 -1.03125 12.640625 -1.34375 L 12.25 -3.15625 L 13.046875 -3.421875 L 14.859375 1.96875 L 14.0625 2.234375 L 13.25 0.515625 C 12.457031 0.765625 11.660156 1.023438 10.859375 1.296875 C 10.066406 1.566406 9.269531 1.835938 8.46875 2.109375 L 10.546875 8.3125 C 11.335938 8.039062 12.128906 7.769531 12.921875 7.5 C 13.722656 7.238281 14.519531 6.960938 15.3125 6.671875 L 14.921875 4.84375 L 15.71875 4.578125 L 17.53125 9.953125 L 16.734375 10.21875 Z M 15.9375 8.53125 "/></g></g></g><g fill="#545454" fill-opacity="1"><g transform="translate(75.275781, 237.705057)"><g><path d="M 8.609375 8.328125 L 5.40625 9.921875 L 0.421875 0.78125 L 1.15625 0.390625 L 2.234375 1.90625 C 2.984375 1.519531 3.738281 1.117188 4.5 0.703125 C 5.257812 0.296875 6.023438 -0.117188 6.796875 -0.546875 L 7.671875 -1.015625 C 8.429688 -1.429688 9.1875 -1.84375 9.9375 -2.25 C 10.6875 -2.664062 11.441406 -3.09375 12.203125 -3.53125 L 11.5 -5.265625 L 12.234375 -5.65625 L 17.03125 3.140625 L 13.953125 4.96875 L 13.40625 3.953125 L 15.4375 2.34375 L 13.15625 -1.828125 C 12.40625 -1.429688 11.660156 -1.03125 10.921875 -0.625 C 10.179688 -0.21875 9.4375 0.1875 8.6875 0.59375 L 10.125 3.203125 L 11.9375 2.53125 L 12.375 3.328125 L 8.1875 5.609375 L 7.75 4.8125 L 9.296875 3.6875 L 7.84375 1.046875 C 7 1.503906 6.191406 1.941406 5.421875 2.359375 C 4.648438 2.785156 3.882812 3.210938 3.125 3.640625 L 5.59375 8.171875 L 8.0625 7.328125 Z M 8.609375 8.328125 "/></g></g></g><g fill="#545454" fill-opacity="1"><g transform="translate(85.427076, 255.049029)"><g><path d="M 9.25 3.171875 L 12.609375 -1.96875 L 6.796875 0.03125 Z M 8.78125 9.84375 L 8.125 10.359375 L 4.75 6.046875 L 5.40625 5.53125 L 6.796875 6.9375 L 8.71875 4.015625 L 5.859375 0.375 L 2.5625 1.515625 L 3.5625 3.203125 L 2.90625 3.71875 L 0.0625 0.078125 L 0.71875 -0.4375 L 1.96875 0.75 L 14.359375 -3.484375 L 15.109375 -2.546875 L 7.96875 8.546875 Z M 8.78125 9.84375 "/></g></g></g><g fill="#545454" fill-opacity="1"><g transform="translate(99.119419, 271.353736)"><g><path d="M 10.75 4.703125 L 8.0625 7.375 L 0.65625 0.59375 L 1.21875 -0.015625 L 2.71875 1.078125 C 3.332031 0.453125 3.925781 -0.171875 4.5 -0.796875 C 5.082031 -1.429688 5.664062 -2.070312 6.25 -2.71875 L 6.921875 -3.453125 C 7.515625 -4.109375 8.101562 -4.753906 8.6875 -5.390625 C 9.269531 -6.023438 9.835938 -6.664062 10.390625 -7.3125 L 9.171875 -8.71875 L 9.734375 -9.328125 L 13.9375 -5.484375 L 13.375 -4.875 L 11.84375 -5.984375 C 11.238281 -5.347656 10.644531 -4.710938 10.0625 -4.078125 C 9.488281 -3.453125 8.910156 -2.816406 8.328125 -2.171875 L 7.65625 -1.4375 C 7.0625 -0.789062 6.46875 -0.144531 5.875 0.5 C 5.289062 1.144531 4.710938 1.789062 4.140625 2.4375 L 7.53125 5.546875 L 9.828125 3.875 Z M 10.75 4.703125 "/></g></g></g><g fill="#545454" fill-opacity="1"><g transform="translate(114.219289, 284.314861)"><g><path d="M 12.734375 -6.5 C 12.234375 -5.800781 11.742188 -5.085938 11.265625 -4.359375 C 10.796875 -3.640625 10.316406 -2.910156 9.828125 -2.171875 L 9.296875 -1.359375 C 8.816406 -0.617188 8.34375 0.101562 7.875 0.8125 C 7.40625 1.53125 6.945312 2.265625 6.5 3.015625 L 8.078125 4.3125 L 7.625 5 L 2.53125 1.65625 L 2.984375 0.96875 L 4.84375 1.921875 C 5.3125 1.222656 5.78125 0.515625 6.25 -0.203125 C 6.726562 -0.929688 7.210938 -1.664062 7.703125 -2.40625 L 8.234375 -3.21875 C 8.722656 -3.945312 9.203125 -4.671875 9.671875 -5.390625 C 10.148438 -6.117188 10.617188 -6.851562 11.078125 -7.59375 L 8.5 -9.28125 L 6.71875 -7.390625 L 5.75 -8.03125 L 7.84375 -10.9375 L 17.09375 -4.875 L 15.25 -1.796875 L 14.296875 -2.421875 L 15.296875 -4.8125 Z M 12.734375 -6.5 "/></g></g></g><g fill="#545454" fill-opacity="1"><g transform="translate(131.389843, 294.932268)"><g><path d="M 16.96875 -6.234375 C 16.601562 -5.472656 16.25 -4.691406 15.90625 -3.890625 C 15.570312 -3.097656 15.234375 -2.296875 14.890625 -1.484375 L 14.5 -0.578125 C 14.15625 0.222656 13.8125 1.015625 13.46875 1.796875 C 13.132812 2.585938 12.8125 3.390625 12.5 4.203125 L 14.125 5.140625 L 13.796875 5.90625 L 8.578125 3.671875 L 8.90625 2.90625 L 10.6875 3.4375 C 11.039062 2.675781 11.382812 1.894531 11.71875 1.09375 C 12.0625 0.289062 12.4375 -0.570312 12.84375 -1.5 L 6.828125 -4.0625 C 6.429688 -3.144531 6.0625 -2.285156 5.71875 -1.484375 C 5.375 -0.679688 5.046875 0.101562 4.734375 0.875 L 6.375 1.828125 L 6.046875 2.59375 L 0.8125 0.34375 L 1.140625 -0.421875 L 2.921875 0.109375 C 3.285156 -0.648438 3.632812 -1.425781 3.96875 -2.21875 C 4.3125 -3.019531 4.660156 -3.828125 5.015625 -4.640625 L 5.40625 -5.546875 C 5.75 -6.347656 6.085938 -7.140625 6.421875 -7.921875 C 6.753906 -8.710938 7.078125 -9.515625 7.390625 -10.328125 L 5.78125 -11.265625 L 6.109375 -12.03125 L 11.34375 -9.78125 L 11.015625 -9.015625 L 9.203125 -9.5625 C 8.859375 -8.789062 8.519531 -8.019531 8.1875 -7.25 C 7.863281 -6.476562 7.53125 -5.703125 7.1875 -4.921875 L 13.203125 -2.359375 C 13.535156 -3.140625 13.863281 -3.914062 14.1875 -4.6875 C 14.519531 -5.457031 14.84375 -6.226562 15.15625 -7 L 13.546875 -7.9375 L 13.875 -8.703125 L 19.09375 -6.46875 L 18.765625 -5.703125 Z M 16.96875 -6.234375 "/></g></g></g><g fill="#545454" fill-opacity="1"><g transform="translate(153.689038, 303.538138)"><g><path d="M 8.3125 -3.546875 L 8.171875 -2.9375 C 8.078125 -2.519531 7.957031 -2 7.8125 -1.375 C 7.664062 -0.75 7.53125 -0.0820312 7.40625 0.625 L 9.359375 1.296875 L 9.171875 2.109375 L 3.265625 0.75 L 3.453125 -0.0625 L 5.484375 0.1875 C 5.660156 -0.507812 5.820312 -1.171875 5.96875 -1.796875 C 6.113281 -2.421875 6.234375 -2.941406 6.328125 -3.359375 L 6.453125 -3.890625 L 4.609375 -11.71875 L 3.109375 -12.25 L 3.296875 -13.046875 L 8.8125 -11.78125 L 8.625 -10.984375 L 6.71875 -11.1875 L 8.09375 -4.640625 L 12.234375 -9.90625 L 10.53125 -10.546875 L 10.71875 -11.34375 L 15.1875 -10.3125 L 15 -9.515625 L 13.234375 -9.65625 Z M 8.3125 -3.546875 "/></g></g></g><g fill="#545454" fill-opacity="1"><g transform="translate(173.75689, 307.350579)"><g/></g></g><g fill="#545454" fill-opacity="1"><g transform="translate(186.150891, 308.253928)"><g><path d="M 11 -4.171875 L 10.921875 -0.375 L 0.890625 -0.03125 L 0.859375 -0.859375 L 2.703125 -1.140625 C 2.703125 -2.015625 2.6875 -2.878906 2.65625 -3.734375 C 2.625 -4.585938 2.59375 -5.453125 2.5625 -6.328125 L 2.53125 -7.3125 C 2.5 -8.195312 2.46875 -9.070312 2.4375 -9.9375 C 2.40625 -10.800781 2.359375 -11.65625 2.296875 -12.5 L 0.453125 -12.65625 L 0.421875 -13.46875 L 6.109375 -13.671875 L 6.140625 -12.859375 L 4.265625 -12.5625 C 4.273438 -11.6875 4.296875 -10.820312 4.328125 -9.96875 C 4.359375 -9.113281 4.390625 -8.25 4.421875 -7.375 L 4.453125 -6.390625 C 4.484375 -5.503906 4.515625 -4.625 4.546875 -3.75 C 4.578125 -2.882812 4.617188 -2.019531 4.671875 -1.15625 L 9.265625 -1.328125 L 9.75 -4.125 Z M 11 -4.171875 "/></g></g></g><g fill="#545454" fill-opacity="1"><g transform="translate(205.87804, 306.861892)"><g><path d="M 2.46875 -13.03125 C 2.59375 -12.195312 2.726562 -11.351562 2.875 -10.5 C 3.03125 -9.65625 3.1875 -8.796875 3.34375 -7.921875 L 3.515625 -6.953125 C 3.660156 -6.085938 3.804688 -5.234375 3.953125 -4.390625 C 4.109375 -3.554688 4.269531 -2.707031 4.4375 -1.84375 L 6.34375 -1.953125 L 6.484375 -1.140625 L 0.875 -0.15625 L 0.734375 -0.96875 L 2.5 -1.5 C 2.382812 -2.34375 2.25 -3.1875 2.09375 -4.03125 C 1.945312 -4.882812 1.800781 -5.75 1.65625 -6.625 L 1.484375 -7.59375 C 1.328125 -8.457031 1.171875 -9.304688 1.015625 -10.140625 C 0.867188 -10.984375 0.707031 -11.832031 0.53125 -12.6875 L -1.328125 -12.59375 L -1.46875 -13.40625 L 4.140625 -14.390625 L 4.28125 -13.578125 Z M 1.359375 -15.28125 C 0.984375 -15.207031 0.644531 -15.269531 0.34375 -15.46875 C 0.0507812 -15.664062 -0.125 -15.945312 -0.1875 -16.3125 C -0.257812 -16.695312 -0.191406 -17.023438 0.015625 -17.296875 C 0.234375 -17.566406 0.53125 -17.738281 0.90625 -17.8125 C 1.289062 -17.875 1.628906 -17.8125 1.921875 -17.625 C 2.210938 -17.445312 2.394531 -17.164062 2.46875 -16.78125 C 2.53125 -16.414062 2.457031 -16.085938 2.25 -15.796875 C 2.039062 -15.515625 1.742188 -15.34375 1.359375 -15.28125 Z M 1.359375 -15.28125 "/></g></g></g><g fill="#545454" fill-opacity="1"><g transform="translate(220.808406, 303.820413)"><g><path d="M 0.640625 -13.265625 C 0.878906 -12.453125 1.128906 -11.644531 1.390625 -10.84375 C 1.648438 -10.039062 1.910156 -9.234375 2.171875 -8.421875 L 5.15625 -9.390625 L 4.828125 -11.3125 L 5.71875 -11.59375 L 7.25 -6.875 L 6.359375 -6.59375 L 5.453125 -8.484375 L 2.46875 -7.515625 C 2.757812 -6.609375 3.039062 -5.738281 3.3125 -4.90625 C 3.582031 -4.070312 3.859375 -3.253906 4.140625 -2.453125 L 6 -2.8125 L 6.25 -2.03125 L 0.84375 -0.28125 L 0.59375 -1.0625 L 2.265625 -1.84375 C 2.035156 -2.65625 1.785156 -3.472656 1.515625 -4.296875 C 1.253906 -5.117188 0.988281 -5.953125 0.71875 -6.796875 L 0.40625 -7.71875 C 0.132812 -8.550781 -0.128906 -9.375 -0.390625 -10.1875 C -0.648438 -11 -0.929688 -11.816406 -1.234375 -12.640625 L -3.046875 -12.296875 L -3.3125 -13.078125 L 6.21875 -16.15625 L 7.453125 -12.796875 L 6.359375 -12.4375 L 5.15625 -14.734375 Z M 0.640625 -13.265625 "/></g></g></g><g fill="#545454" fill-opacity="1"><g transform="translate(239.206434, 297.210057)"><g><path d="M 8.5625 -8.390625 L 10.0625 -5.140625 L 0.796875 -0.40625 L 0.421875 -1.140625 L 1.96875 -2.1875 C 1.613281 -2.945312 1.238281 -3.710938 0.84375 -4.484375 C 0.445312 -5.253906 0.046875 -6.03125 -0.359375 -6.8125 L -0.796875 -7.6875 C -1.191406 -8.46875 -1.582031 -9.238281 -1.96875 -10 C -2.363281 -10.757812 -2.773438 -11.523438 -3.203125 -12.296875 L -4.953125 -11.65625 L -5.328125 -12.390625 L 3.59375 -16.953125 L 5.34375 -13.828125 L 4.3125 -13.296875 L 2.765625 -15.359375 L -1.46875 -13.203125 C -1.101562 -12.441406 -0.726562 -11.6875 -0.34375 -10.9375 C 0.0390625 -10.1875 0.425781 -9.429688 0.8125 -8.671875 L 3.46875 -10.03125 L 2.84375 -11.859375 L 3.65625 -12.28125 L 5.828125 -8.03125 L 5.015625 -7.609375 L 3.9375 -9.1875 L 1.25 -7.8125 C 1.6875 -6.957031 2.101562 -6.140625 2.5 -5.359375 C 2.90625 -4.578125 3.316406 -3.800781 3.734375 -3.03125 L 8.328125 -5.375 L 7.546875 -7.875 Z M 8.5625 -8.390625 "/></g></g></g><g fill="#545454" fill-opacity="1"><g transform="translate(256.713068, 287.510713)"><g><path d="M 0.28125 -9.546875 C 0.976562 -9.742188 1.597656 -9.863281 2.140625 -9.90625 C 2.691406 -9.957031 3.175781 -9.9375 3.59375 -9.84375 C 4.019531 -9.75 4.394531 -9.585938 4.71875 -9.359375 C 5.050781 -9.128906 5.351562 -8.832031 5.625 -8.46875 C 5.976562 -7.976562 6.195312 -7.472656 6.28125 -6.953125 C 6.363281 -6.429688 6.332031 -5.910156 6.1875 -5.390625 C 6.050781 -4.867188 5.789062 -4.363281 5.40625 -3.875 C 5.03125 -3.382812 4.5625 -2.9375 4 -2.53125 C 3.382812 -2.082031 2.738281 -1.738281 2.0625 -1.5 C 1.382812 -1.269531 0.757812 -1.132812 0.1875 -1.09375 L -1.34375 -3.453125 L -0.34375 -4.171875 L 1.328125 -2.5 C 1.703125 -2.539062 2.046875 -2.617188 2.359375 -2.734375 C 2.679688 -2.847656 3.019531 -3.035156 3.375 -3.296875 C 4.144531 -3.847656 4.632812 -4.460938 4.84375 -5.140625 C 5.0625 -5.828125 4.9375 -6.492188 4.46875 -7.140625 C 4.289062 -7.390625 4.085938 -7.578125 3.859375 -7.703125 C 3.640625 -7.835938 3.394531 -7.921875 3.125 -7.953125 C 2.851562 -7.992188 2.539062 -7.988281 2.1875 -7.9375 C 1.84375 -7.882812 1.453125 -7.796875 1.015625 -7.671875 L 0.203125 -7.46875 C -0.347656 -7.3125 -0.867188 -7.210938 -1.359375 -7.171875 C -1.847656 -7.128906 -2.3125 -7.148438 -2.75 -7.234375 C -3.195312 -7.328125 -3.601562 -7.488281 -3.96875 -7.71875 C -4.34375 -7.945312 -4.679688 -8.265625 -4.984375 -8.671875 C -5.316406 -9.140625 -5.523438 -9.628906 -5.609375 -10.140625 C -5.703125 -10.660156 -5.6875 -11.175781 -5.5625 -11.6875 C -5.4375 -12.195312 -5.195312 -12.679688 -4.84375 -13.140625 C -4.488281 -13.609375 -4.050781 -14.023438 -3.53125 -14.390625 C -2.976562 -14.796875 -2.421875 -15.082031 -1.859375 -15.25 C -1.296875 -15.414062 -0.75 -15.492188 -0.21875 -15.484375 L 1.21875 -13.28125 L 0.203125 -12.5625 L -1.46875 -14.171875 C -2.039062 -14.078125 -2.554688 -13.863281 -3.015625 -13.53125 C -3.648438 -13.070312 -4.0625 -12.53125 -4.25 -11.90625 C -4.445312 -11.28125 -4.316406 -10.648438 -3.859375 -10.015625 C -3.492188 -9.503906 -3.035156 -9.210938 -2.484375 -9.140625 C -1.941406 -9.066406 -1.296875 -9.128906 -0.546875 -9.328125 Z M 0.28125 -9.546875 "/></g></g></g><g fill="#545454" fill-opacity="1"><g transform="translate(271.129817, 276.448421)"><g><path d="M -3.671875 -13.8125 C -3.109375 -13.1875 -2.519531 -12.566406 -1.90625 -11.953125 C -1.300781 -11.335938 -0.6875 -10.710938 -0.0625 -10.078125 L 0.625 -9.375 C 1.238281 -8.75 1.84375 -8.132812 2.4375 -7.53125 C 3.039062 -6.925781 3.664062 -6.320312 4.3125 -5.71875 L 5.921875 -7 L 6.5 -6.40625 L 2.15625 -2.125 L 1.578125 -2.71875 L 2.890625 -4.328125 C 2.316406 -4.929688 1.726562 -5.539062 1.125 -6.15625 C 0.519531 -6.78125 -0.09375 -7.40625 -0.71875 -8.03125 L -1.40625 -8.734375 C -2.019531 -9.359375 -2.628906 -9.976562 -3.234375 -10.59375 C -3.847656 -11.207031 -4.46875 -11.816406 -5.09375 -12.421875 L -7.28125 -10.265625 L -5.8125 -8.109375 L -6.625 -7.296875 L -9.03125 -9.96875 L -1.15625 -17.734375 L 1.453125 -15.28125 L 0.640625 -14.46875 L -1.484375 -15.96875 Z M -3.671875 -13.8125 "/></g></g></g><g fill="#545454" fill-opacity="1"><g transform="translate(284.994204, 261.895122)"><g><path d="M 0 -9.046875 L 0.515625 -8.671875 C 0.859375 -8.421875 1.289062 -8.101562 1.8125 -7.71875 C 2.332031 -7.34375 2.890625 -6.957031 3.484375 -6.5625 L 4.859375 -8.09375 L 5.53125 -7.609375 L 1.96875 -2.703125 L 1.296875 -3.1875 L 2.328125 -4.96875 C 1.753906 -5.40625 1.207031 -5.8125 0.6875 -6.1875 C 0.164062 -6.570312 -0.265625 -6.890625 -0.609375 -7.140625 L -1.046875 -7.453125 L -8.953125 -8.84375 L -10.03125 -7.671875 L -10.703125 -8.15625 L -7.375 -12.734375 L -6.703125 -12.25 L -7.65625 -10.5625 L -1.078125 -9.25 L -4.296875 -15.15625 L -5.546875 -13.828125 L -6.21875 -14.3125 L -3.53125 -18.015625 L -2.859375 -17.53125 L -3.6875 -15.953125 Z M 0 -9.046875 "/></g></g></g><g fill="#545454" fill-opacity="1"><g transform="translate(296.582679, 244.849111)"><g><path d="M 1.640625 -11.640625 L 4.921875 -9.75 L 0.40625 -0.796875 L -0.328125 -1.171875 L 0.296875 -2.90625 C -0.472656 -3.332031 -1.238281 -3.738281 -2 -4.125 C -2.757812 -4.507812 -3.53125 -4.898438 -4.3125 -5.296875 L -5.1875 -5.734375 C -5.976562 -6.128906 -6.757812 -6.519531 -7.53125 -6.90625 C -8.3125 -7.300781 -9.082031 -7.675781 -9.84375 -8.03125 L -10.859375 -6.484375 L -11.609375 -6.859375 L -9.046875 -11.9375 L -8.296875 -11.5625 L -8.953125 -9.796875 C -8.179688 -9.378906 -7.410156 -8.976562 -6.640625 -8.59375 C -5.878906 -8.207031 -5.109375 -7.816406 -4.328125 -7.421875 L -3.453125 -6.984375 C -2.660156 -6.578125 -1.875 -6.175781 -1.09375 -5.78125 C -0.320312 -5.394531 0.453125 -5.019531 1.234375 -4.65625 L 3.296875 -8.75 L 1.078125 -10.515625 Z M 1.640625 -11.640625 "/></g></g></g><g fill="#545454" fill-opacity="1"><g transform="translate(304.977616, 226.80492)"><g><path d="M 0.046875 -11.984375 L 3.421875 -10.765625 L 0.265625 -0.84375 L -0.53125 -1.09375 L -0.171875 -2.921875 C -0.960938 -3.210938 -1.769531 -3.488281 -2.59375 -3.75 C -3.414062 -4.007812 -4.25 -4.273438 -5.09375 -4.546875 L -6.03125 -4.84375 C -6.863281 -5.101562 -7.6875 -5.363281 -8.5 -5.625 C -9.320312 -5.882812 -10.15625 -6.128906 -11 -6.359375 L -11.765625 -4.65625 L -12.5625 -4.90625 L -9.53125 -14.453125 L -6.0625 -13.515625 L -6.421875 -12.40625 L -8.984375 -12.765625 L -10.421875 -8.234375 C -9.628906 -7.960938 -8.828125 -7.695312 -8.015625 -7.4375 C -7.210938 -7.1875 -6.40625 -6.929688 -5.59375 -6.671875 L -4.6875 -9.515625 L -6.421875 -10.359375 L -6.15625 -11.234375 L -1.625 -9.796875 L -1.890625 -8.921875 L -3.765625 -9.265625 L -4.6875 -6.390625 C -3.769531 -6.097656 -2.890625 -5.816406 -2.046875 -5.546875 C -1.210938 -5.285156 -0.375 -5.03125 0.46875 -4.78125 L 2.03125 -9.6875 L -0.296875 -10.890625 Z M 0.046875 -11.984375 "/></g></g></g><path fill="#fcdd86" d="M 182.097656 217.007812 C 182.097656 235.820312 166.84375 251.074219 148.03125 251.074219 C 129.21875 251.074219 113.964844 235.820312 113.964844 217.007812 C 113.964844 198.191406 129.21875 182.941406 148.03125 182.941406 C 166.84375 182.941406 182.097656 198.191406 182.097656 217.007812 " fill-opacity="1" fill-rule="nonzero"/><path fill="#9be5f9" d="M 221.566406 148.03125 C 221.566406 166.84375 206.3125 182.097656 187.5 182.097656 C 168.6875 182.097656 153.433594 166.84375 153.433594 148.03125 C 153.433594 129.21875 168.6875 113.964844 187.5 113.964844 C 206.3125 113.964844 221.566406 129.21875 221.566406 148.03125 " fill-opacity="1" fill-rule="nonzero"/><path fill="#b598f9" d="M 261.035156 217.007812 C 261.035156 235.820312 245.78125 251.074219 226.96875 251.074219 C 208.152344 251.074219 192.902344 235.820312 192.902344 217.007812 C 192.902344 198.191406 208.152344 182.941406 226.96875 182.941406 C 245.78125 182.941406 261.035156 198.191406 261.035156 217.007812 " fill-opacity="1" fill-rule="nonzero"/><path fill="#fc657e" d="M 204.90625 136.035156 C 200.492188 132.160156 193.734375 132.652344 189.582031 136.804688 L 188.332031 138.050781 C 187.875 138.511719 187.125 138.511719 186.667969 138.050781 L 185.417969 136.804688 C 181.265625 132.652344 174.507812 132.160156 170.09375 136.035156 C 165.257812 140.28125 165.078125 147.652344 169.558594 152.132812 L 184.867188 167.441406 C 186.320312 168.894531 188.679688 168.894531 190.132812 167.441406 L 205.441406 152.132812 C 209.921875 147.652344 209.742188 140.28125 204.90625 136.035156 " fill-opacity="1" fill-rule="nonzero"/><path fill="#fc657e" d="M 154.039062 207.628906 C 153.023438 207.628906 152.058594 207.84375 151.191406 208.230469 C 148.945312 209.226562 146.332031 209.226562 144.089844 208.230469 C 143.21875 207.84375 142.253906 207.628906 141.238281 207.628906 C 133.855469 207.628906 128.296875 215.078125 131.382812 222.4375 L 136.851562 235.484375 C 137.566406 238.023438 139.859375 239.890625 142.496094 239.84375 C 143.589844 239.824219 144.613281 239.507812 145.484375 238.964844 C 146.796875 238.15625 148.484375 238.15625 149.792969 238.964844 C 150.667969 239.507812 151.6875 239.824219 152.78125 239.84375 C 155.421875 239.890625 157.714844 238.023438 158.425781 235.484375 L 163.894531 222.4375 C 166.980469 215.082031 161.421875 207.628906 154.039062 207.628906 " fill-opacity="1" fill-rule="nonzero"/><path fill="#b2e26d" d="M 157.730469 195.4375 C 157.726562 194.835938 157.355469 194.285156 156.800781 194.054688 C 154.664062 193.171875 152.144531 193.335938 150.082031 194.71875 C 148.019531 196.105469 146.910156 198.375 146.917969 200.683594 C 146.917969 201.285156 147.289062 201.835938 147.847656 202.066406 C 149.980469 202.949219 152.5 202.789062 154.566406 201.40625 C 156.628906 200.019531 157.734375 197.75 157.730469 195.4375 " fill-opacity="1" fill-rule="nonzero"/><path fill="#818182" d="M 216.03125 206.496094 L 216.03125 227.519531 C 216.03125 229.414062 214.5 230.945312 212.605469 230.945312 C 210.714844 230.945312 209.183594 229.414062 209.183594 227.519531 L 209.183594 206.496094 C 209.183594 204.601562 210.714844 203.070312 212.605469 203.070312 C 214.5 203.070312 216.03125 204.601562 216.03125 206.496094 " fill-opacity="1" fill-rule="nonzero"/><path fill="#818182" d="M 209.183594 209.261719 L 209.183594 224.753906 C 209.183594 226.644531 207.644531 228.179688 205.753906 228.179688 C 203.863281 228.179688 202.328125 226.644531 202.328125 224.753906 L 202.328125 209.261719 C 202.328125 207.371094 203.863281 205.835938 205.753906 205.835938 C 207.644531 205.835938 209.183594 207.371094 209.183594 209.261719 " fill-opacity="1" fill-rule="nonzero"/><path fill="#818182" d="M 237.90625 206.496094 L 237.90625 227.519531 C 237.90625 229.414062 239.4375 230.945312 241.332031 230.945312 C 243.222656 230.945312 244.757812 229.414062 244.757812 227.519531 L 244.757812 206.496094 C 244.757812 204.601562 243.222656 203.070312 241.332031 203.070312 C 239.4375 203.070312 237.90625 204.601562 237.90625 206.496094 " fill-opacity="1" fill-rule="nonzero"/><path fill="#818182" d="M 244.757812 209.261719 L 244.757812 224.753906 C 244.757812 226.644531 246.289062 228.179688 248.179688 228.179688 C 250.074219 228.179688 251.609375 226.644531 251.609375 224.753906 L 251.609375 209.261719 C 251.609375 207.371094 250.074219 205.835938 248.179688 205.835938 C 246.289062 205.835938 244.757812 207.371094 244.757812 209.261719 " fill-opacity="1" fill-rule="nonzero"/><path fill="#edf4fc" d="M 237.90625 213.582031 L 216.03125 213.582031 L 216.03125 220.433594 L 237.90625 220.433594 L 237.90625 213.582031 " fill-opacity="1" fill-rule="nonzero"/><path fill="#fc657e" d="M 238.484375 159.492188 C 236.667969 159.140625 235.203125 157.734375 234.851562 155.917969 C 234.851562 155.859375 234.675781 155.859375 234.675781 155.917969 C 234.324219 157.734375 232.859375 159.140625 231.042969 159.492188 C 230.984375 159.492188 230.984375 159.609375 231.042969 159.667969 C 232.859375 160.019531 234.324219 161.425781 234.675781 163.242188 C 234.675781 163.300781 234.851562 163.300781 234.851562 163.242188 C 235.203125 161.425781 236.667969 160.019531 238.484375 159.667969 C 238.542969 159.609375 238.542969 159.492188 238.484375 159.492188 " fill-opacity="1" fill-rule="nonzero"/><path fill="#70d6f9" d="M 139.460938 126.855469 L 140.808594 126.855469 L 140.808594 128.203125 C 140.808594 129.257812 141.628906 130.078125 142.683594 130.078125 C 143.679688 130.078125 144.558594 129.257812 144.558594 128.261719 L 144.558594 126.855469 L 145.90625 126.855469 C 146.960938 126.855469 147.78125 126.035156 147.78125 124.980469 C 147.78125 123.984375 146.960938 123.105469 145.964844 123.105469 L 144.558594 123.105469 L 144.558594 121.757812 C 144.558594 120.703125 143.738281 119.882812 142.683594 119.882812 C 141.6875 119.882812 140.808594 120.703125 140.808594 121.699219 L 140.808594 123.105469 L 139.460938 123.105469 C 138.40625 123.105469 137.585938 123.925781 137.585938 124.980469 C 137.527344 125.976562 138.347656 126.855469 139.460938 126.855469 C 139.402344 126.855469 139.402344 126.855469 139.460938 126.855469 " fill-opacity="1" fill-rule="nonzero"/><g clip-path="url(#id2)"><path fill="#87d147" d="M 208.835938 258.515625 C 209.933594 258.515625 210.828125 259.40625 210.828125 260.507812 C 210.828125 261.605469 209.933594 262.5 208.835938 262.5 C 207.734375 262.5 206.84375 261.605469 206.84375 260.507812 C 206.84375 259.40625 207.734375 258.515625 208.835938 258.515625 " fill-opacity="1" fill-rule="nonzero"/></g><g clip-path="url(#id3)"><path fill="#f5c84c" d="M 159.617188 112.5 C 160.714844 112.5 161.609375 113.394531 161.609375 114.492188 C 161.609375 115.59375 160.714844 116.484375 159.617188 116.484375 C 158.515625 116.484375 157.625 115.59375 157.625 114.492188 C 157.625 113.394531 158.515625 112.5 159.617188 112.5 " fill-opacity="1" fill-rule="nonzero"/></g><path fill="#f5c84c" d="M 187.390625 250.3125 C 190.027344 249.84375 192.078125 247.792969 192.605469 245.214844 C 192.605469 245.097656 192.839844 245.097656 192.839844 245.214844 C 193.367188 247.792969 195.417969 249.84375 198.054688 250.3125 C 198.171875 250.3125 198.171875 250.488281 198.054688 250.546875 C 195.417969 251.015625 193.367188 253.066406 192.839844 255.644531 C 192.839844 255.761719 192.605469 255.761719 192.605469 255.644531 C 192.078125 253.066406 190.027344 251.015625 187.390625 250.546875 C 187.273438 250.488281 187.273438 250.3125 187.390625 250.3125 " fill-opacity="1" fill-rule="nonzero"/><g clip-path="url(#id4)"><path fill="#000000" d="M 148.03125 184.40625 C 130.054688 184.40625 115.429688 199.03125 115.429688 217.007812 C 115.429688 234.984375 130.054688 249.609375 148.03125 249.609375 C 166.007812 249.609375 180.632812 234.984375 180.632812 217.007812 C 180.632812 199.03125 166.007812 184.40625 148.03125 184.40625 Z M 148.03125 252.539062 C 128.4375 252.539062 112.5 236.601562 112.5 217.007812 C 112.5 197.414062 128.4375 181.476562 148.03125 181.476562 C 167.625 181.476562 183.5625 197.414062 183.5625 217.007812 C 183.5625 236.601562 167.625 252.539062 148.03125 252.539062 " fill-opacity="1" fill-rule="nonzero"/></g><g clip-path="url(#id5)"><path fill="#000000" d="M 187.5 115.429688 C 169.523438 115.429688 154.898438 130.054688 154.898438 148.03125 C 154.898438 166.007812 169.523438 180.632812 187.5 180.632812 C 205.476562 180.632812 220.101562 166.007812 220.101562 148.03125 C 220.101562 130.054688 205.476562 115.429688 187.5 115.429688 Z M 187.5 183.5625 C 167.90625 183.5625 151.96875 167.625 151.96875 148.03125 C 151.96875 128.4375 167.90625 112.5 187.5 112.5 C 207.09375 112.5 223.03125 128.4375 223.03125 148.03125 C 223.03125 167.625 207.09375 183.5625 187.5 183.5625 " fill-opacity="1" fill-rule="nonzero"/></g><path fill="#000000" d="M 187.792969 158.492188 C 187.75 158.492188 187.710938 158.492188 187.667969 158.488281 C 187.113281 158.441406 186.632812 158.085938 186.429688 157.5625 L 182.226562 146.824219 L 179.078125 151.9375 C 178.8125 152.371094 178.339844 152.632812 177.832031 152.632812 L 164.355469 152.632812 C 163.546875 152.632812 162.890625 151.980469 162.890625 151.167969 C 162.890625 150.359375 163.546875 149.703125 164.355469 149.703125 L 177.011719 149.703125 L 181.273438 142.785156 C 181.5625 142.3125 182.097656 142.039062 182.648438 142.09375 C 183.203125 142.140625 183.679688 142.5 183.882812 143.019531 L 188.070312 153.71875 L 190.050781 150.417969 C 190.316406 149.976562 190.792969 149.703125 191.308594 149.703125 L 210.644531 149.703125 C 211.453125 149.703125 212.109375 150.359375 212.109375 151.167969 C 212.109375 151.980469 211.453125 152.632812 210.644531 152.632812 L 192.136719 152.632812 L 189.050781 157.78125 C 188.78125 158.226562 188.304688 158.492188 187.792969 158.492188 " fill-opacity="1" fill-rule="nonzero"/><path fill="#000000" d="M 147.523438 209.46875 C 146.714844 209.46875 146.058594 208.816406 146.058594 208.003906 C 146.058594 202.898438 141.433594 199.90625 141.386719 199.875 C 140.707031 199.441406 140.5 198.539062 140.933594 197.855469 C 141.359375 197.171875 142.257812 196.964844 142.945312 197.390625 C 143.191406 197.546875 148.988281 201.25 148.988281 208.003906 C 148.988281 208.816406 148.332031 209.46875 147.523438 209.46875 " fill-opacity="1" fill-rule="nonzero"/><g clip-path="url(#id6)"><path fill="#000000" d="M 226.96875 184.40625 C 208.992188 184.40625 194.367188 199.03125 194.367188 217.007812 C 194.367188 234.984375 208.992188 249.609375 226.96875 249.609375 C 244.945312 249.609375 259.570312 234.984375 259.570312 217.007812 C 259.570312 199.03125 244.945312 184.40625 226.96875 184.40625 Z M 226.96875 252.539062 C 207.375 252.539062 191.4375 236.601562 191.4375 217.007812 C 191.4375 197.414062 207.375 181.476562 226.96875 181.476562 C 246.5625 181.476562 262.5 197.414062 262.5 217.007812 C 262.5 236.601562 246.5625 252.539062 226.96875 252.539062 " fill-opacity="1" fill-rule="nonzero"/></g><path fill="#000000" d="M 177.226562 134.84375 C 175.003906 134.84375 172.808594 135.601562 171.058594 137.136719 C 169.042969 138.910156 167.886719 141.355469 167.796875 144.023438 C 167.710938 146.695312 168.703125 149.207031 170.59375 151.097656 L 185.898438 166.402344 C 186.757812 167.261719 188.242188 167.261719 189.101562 166.402344 L 204.40625 151.097656 C 206.296875 149.207031 207.289062 146.695312 207.203125 144.023438 C 207.117188 141.355469 205.957031 138.910156 203.941406 137.136719 C 200.171875 133.824219 194.320312 134.136719 190.613281 137.839844 L 189.367188 139.085938 C 188.867188 139.585938 188.203125 139.859375 187.5 139.859375 C 186.796875 139.859375 186.132812 139.585938 185.632812 139.085938 L 184.386719 137.839844 C 182.398438 135.855469 179.796875 134.84375 177.226562 134.84375 Z M 187.5 169.996094 C 186.171875 169.996094 184.839844 169.488281 183.828125 168.476562 L 168.519531 153.167969 C 166.089844 150.738281 164.757812 147.371094 164.867188 143.929688 C 164.984375 140.441406 166.492188 137.246094 169.128906 134.933594 C 174.050781 130.605469 181.664062 130.976562 186.457031 135.769531 L 187.5 136.8125 L 188.542969 135.769531 C 193.335938 130.976562 200.949219 130.609375 205.871094 134.933594 C 208.507812 137.246094 210.015625 140.441406 210.132812 143.929688 C 210.242188 147.371094 208.910156 150.738281 206.480469 153.167969 L 191.171875 168.476562 C 190.160156 169.488281 188.828125 169.996094 187.5 169.996094 " fill-opacity="1" fill-rule="nonzero"/><path fill="#000000" d="M 147.640625 236.894531 C 148.660156 236.894531 149.675781 237.167969 150.566406 237.722656 C 151.238281 238.136719 152.015625 238.363281 152.8125 238.378906 C 154.726562 238.40625 156.464844 237.058594 157.015625 235.089844 C 157.03125 235.03125 157.050781 234.972656 157.074219 234.914062 L 162.546875 221.871094 C 163.765625 218.957031 163.492188 215.816406 161.789062 213.25 C 160.054688 210.648438 157.160156 209.09375 154.039062 209.09375 C 153.253906 209.09375 152.496094 209.253906 151.785156 209.570312 C 149.152344 210.738281 146.128906 210.738281 143.496094 209.570312 C 142.785156 209.253906 142.027344 209.09375 141.238281 209.09375 C 138.121094 209.09375 135.222656 210.648438 133.492188 213.25 C 131.789062 215.816406 131.511719 218.957031 132.734375 221.871094 L 138.203125 234.914062 C 138.226562 234.972656 138.246094 235.03125 138.261719 235.089844 C 138.816406 237.058594 140.550781 238.441406 142.46875 238.378906 C 143.265625 238.363281 144.039062 238.136719 144.710938 237.722656 C 145.601562 237.167969 146.621094 236.894531 147.640625 236.894531 Z M 152.878906 241.308594 C 152.839844 241.308594 152.800781 241.308594 152.757812 241.308594 C 151.433594 241.285156 150.144531 240.90625 149.023438 240.210938 C 148.183594 239.691406 147.09375 239.691406 146.253906 240.210938 C 145.132812 240.90625 143.84375 241.285156 142.519531 241.308594 C 139.296875 241.34375 136.410156 239.171875 135.46875 235.96875 L 130.03125 223.003906 C 128.421875 219.167969 128.796875 215.023438 131.054688 211.628906 C 133.328125 208.207031 137.136719 206.164062 141.238281 206.164062 C 142.4375 206.164062 143.597656 206.40625 144.683594 206.890625 C 146.535156 207.710938 148.742188 207.710938 150.59375 206.890625 C 151.683594 206.40625 152.839844 206.164062 154.039062 206.164062 C 158.140625 206.164062 161.949219 208.207031 164.226562 211.628906 C 166.484375 215.023438 166.855469 219.167969 165.25 223.003906 L 159.808594 235.96875 C 158.882812 239.132812 156.054688 241.308594 152.878906 241.308594 " fill-opacity="1" fill-rule="nonzero"/><path fill="#000000" d="M 154.054688 194.972656 C 152.945312 194.972656 151.84375 195.296875 150.898438 195.933594 C 149.316406 196.992188 148.378906 198.769531 148.382812 200.679688 C 150.171875 201.445312 152.167969 201.246094 153.75 200.1875 C 155.328125 199.128906 156.269531 197.351562 156.265625 195.445312 C 156.265625 195.429688 156.25 195.414062 156.242188 195.40625 C 155.535156 195.117188 154.792969 194.972656 154.054688 194.972656 Z M 150.59375 204.082031 C 149.476562 204.082031 148.355469 203.863281 147.285156 203.421875 C 146.175781 202.964844 145.457031 201.890625 145.453125 200.691406 C 145.445312 197.796875 146.867188 195.109375 149.265625 193.5 C 151.660156 191.894531 154.6875 191.59375 157.359375 192.703125 C 158.46875 193.15625 159.191406 194.230469 159.195312 195.433594 C 159.199219 198.328125 157.777344 201.011719 155.382812 202.621094 C 153.941406 203.585938 152.273438 204.082031 150.59375 204.082031 " fill-opacity="1" fill-rule="nonzero"/><path fill="#000000" d="M 212.605469 204.535156 C 211.527344 204.535156 210.648438 205.414062 210.648438 206.496094 L 210.648438 227.519531 C 210.648438 228.601562 211.527344 229.480469 212.605469 229.480469 C 213.6875 229.480469 214.566406 228.601562 214.566406 227.519531 L 214.566406 206.496094 C 214.566406 205.414062 213.6875 204.535156 212.605469 204.535156 Z M 212.605469 232.410156 C 209.910156 232.410156 207.71875 230.214844 207.71875 227.519531 L 207.71875 206.496094 C 207.71875 203.796875 209.910156 201.605469 212.605469 201.605469 C 215.304688 201.605469 217.496094 203.796875 217.496094 206.496094 L 217.496094 227.519531 C 217.496094 230.214844 215.304688 232.410156 212.605469 232.410156 " fill-opacity="1" fill-rule="nonzero"/><path fill="#000000" d="M 205.753906 207.300781 C 204.671875 207.300781 203.792969 208.179688 203.792969 209.261719 L 203.792969 224.753906 C 203.792969 225.835938 204.671875 226.714844 205.753906 226.714844 C 206.835938 226.714844 207.71875 225.835938 207.71875 224.753906 L 207.71875 209.261719 C 207.71875 208.179688 206.835938 207.300781 205.753906 207.300781 Z M 205.753906 229.644531 C 203.058594 229.644531 200.863281 227.453125 200.863281 224.753906 L 200.863281 209.261719 C 200.863281 206.5625 203.058594 204.371094 205.753906 204.371094 C 208.453125 204.371094 210.648438 206.5625 210.648438 209.261719 L 210.648438 224.753906 C 210.648438 227.453125 208.453125 229.644531 205.753906 229.644531 " fill-opacity="1" fill-rule="nonzero"/><path fill="#000000" d="M 241.332031 204.535156 C 240.25 204.535156 239.371094 205.414062 239.371094 206.496094 L 239.371094 227.519531 C 239.371094 228.601562 240.25 229.480469 241.332031 229.480469 C 242.410156 229.480469 243.292969 228.601562 243.292969 227.519531 L 243.292969 206.496094 C 243.292969 205.414062 242.410156 204.535156 241.332031 204.535156 Z M 241.332031 232.410156 C 238.632812 232.410156 236.441406 230.214844 236.441406 227.519531 L 236.441406 206.496094 C 236.441406 203.796875 238.632812 201.605469 241.332031 201.605469 C 244.027344 201.605469 246.222656 203.796875 246.222656 206.496094 L 246.222656 227.519531 C 246.222656 230.214844 244.027344 232.410156 241.332031 232.410156 " fill-opacity="1" fill-rule="nonzero"/><path fill="#000000" d="M 248.179688 207.300781 C 247.101562 207.300781 246.222656 208.179688 246.222656 209.261719 L 246.222656 224.753906 C 246.222656 225.835938 247.101562 226.714844 248.179688 226.714844 C 249.265625 226.714844 250.144531 225.835938 250.144531 224.753906 L 250.144531 209.261719 C 250.144531 208.179688 249.265625 207.300781 248.179688 207.300781 Z M 248.179688 229.644531 C 245.484375 229.644531 243.292969 227.453125 243.292969 224.753906 L 243.292969 209.261719 C 243.292969 206.5625 245.484375 204.371094 248.179688 204.371094 C 250.878906 204.371094 253.074219 206.5625 253.074219 209.261719 L 253.074219 224.753906 C 253.074219 227.453125 250.878906 229.644531 248.179688 229.644531 " fill-opacity="1" fill-rule="nonzero"/><path fill="#000000" d="M 217.496094 218.96875 L 236.441406 218.96875 L 236.441406 215.046875 L 217.496094 215.046875 Z M 237.90625 221.898438 L 216.03125 221.898438 C 215.222656 221.898438 214.566406 221.242188 214.566406 220.433594 L 214.566406 213.582031 C 214.566406 212.773438 215.222656 212.117188 216.03125 212.117188 L 237.90625 212.117188 C 238.714844 212.117188 239.371094 212.773438 239.371094 213.582031 L 239.371094 220.433594 C 239.371094 221.242188 238.714844 221.898438 237.90625 221.898438 " fill-opacity="1" fill-rule="nonzero"/><g fill="#763880" fill-opacity="1"><g transform="translate(128.424759, 102.583173)"><g><path d="M 16.703125 -30.359375 C 17.242188 -29.035156 17.8125 -27.71875 18.40625 -26.40625 C 19.007812 -25.09375 19.617188 -23.765625 20.234375 -22.421875 L 20.75 -21.3125 C 21.351562 -19.976562 21.953125 -18.65625 22.546875 -17.34375 C 23.148438 -16.03125 23.785156 -14.722656 24.453125 -13.421875 L 27.109375 -14.3125 L 27.828125 -12.734375 L 18 -8.234375 L 17.28125 -9.8125 L 19.71875 -11.265625 C 19.15625 -12.585938 18.570312 -13.90625 17.96875 -15.21875 C 17.363281 -16.539062 16.753906 -17.875 16.140625 -19.21875 L 13.609375 -24.75 L 13.5625 -6.203125 L 12.296875 -5.625 L -1.828125 -17.640625 L 4.265625 -4.34375 L 7.421875 -5.296875 L 8.140625 -3.71875 L 0.46875 -0.21875 L -0.25 -1.796875 L 2.53125 -3.5625 L -5.15625 -20.375 L -7.890625 -19.4375 L -8.609375 -21.015625 L -2.28125 -23.921875 L 11.609375 -12.375 L 11.78125 -30.34375 L 18.390625 -33.375 L 19.109375 -31.796875 Z M 16.703125 -30.359375 "/></g></g></g><g fill="#763880" fill-opacity="1"><g transform="translate(159.941333, 89.342444)"><g><path d="M 18.640625 -9.125 L 19.375 -3.140625 L 1.09375 -0.171875 L 0.8125 -1.890625 L 3.546875 -2.640625 C 3.359375 -4.066406 3.148438 -5.492188 2.921875 -6.921875 C 2.691406 -8.347656 2.457031 -9.789062 2.21875 -11.25 L 2.015625 -12.453125 C 1.785156 -13.878906 1.554688 -15.304688 1.328125 -16.734375 C 1.097656 -18.171875 0.84375 -19.601562 0.5625 -21.03125 L -2.265625 -20.875 L -2.546875 -22.578125 L 15.046875 -25.4375 L 16.25 -19.515625 L 13.6875 -19.109375 L 12.3125 -23.0625 L 5.671875 -21.984375 C 5.835938 -20.679688 6.023438 -19.367188 6.234375 -18.046875 C 6.453125 -16.734375 6.675781 -15.390625 6.90625 -14.015625 L 11.28125 -14.71875 L 11.21875 -17.84375 L 13.078125 -18.140625 L 14.359375 -10.203125 L 12.5 -9.90625 L 11.609375 -12.828125 L 7.203125 -12.125 C 7.453125 -10.570312 7.691406 -9.070312 7.921875 -7.625 C 8.160156 -6.1875 8.421875 -4.742188 8.703125 -3.296875 L 16.015625 -4.484375 L 16.078125 -8.71875 Z M 18.640625 -9.125 "/></g></g></g><g fill="#763880" fill-opacity="1"><g transform="translate(183.426035, 85.92094)"><g><path d="M 19.359375 -5.28125 L 18.71875 1.0625 L 0.6875 0.03125 L 0.765625 -1.359375 L 13.78125 -20.046875 L 5.859375 -20.5 L 4.671875 -16.078125 L 1.96875 -16.234375 L 2.59375 -22.59375 L 19.625 -21.640625 L 19.546875 -20.265625 L 6.546875 -1.546875 L 15.46875 -1.03125 L 16.625 -5.4375 Z M 19.359375 -5.28125 "/></g></g></g><g fill="#763880" fill-opacity="1"><g transform="translate(206.110282, 87.474315)"><g><path d="M 20.75 -0.453125 L 18.890625 5.296875 L 1.0625 0.296875 L 1.53125 -1.375 L 4.328125 -0.90625 C 4.753906 -2.269531 5.160156 -3.648438 5.546875 -5.046875 C 5.941406 -6.441406 6.34375 -7.847656 6.75 -9.265625 L 7.078125 -10.453125 C 7.460938 -11.835938 7.851562 -13.226562 8.25 -14.625 C 8.644531 -16.019531 9.015625 -17.425781 9.359375 -18.84375 L 6.71875 -19.890625 L 7.1875 -21.5625 L 24.359375 -16.75 L 22.953125 -10.875 L 20.46875 -11.5625 L 20.859375 -15.75 L 14.390625 -17.5625 C 13.984375 -16.3125 13.597656 -15.039062 13.234375 -13.75 C 12.878906 -12.46875 12.515625 -11.15625 12.140625 -9.8125 L 16.421875 -8.609375 L 17.6875 -11.453125 L 19.484375 -10.953125 L 17.3125 -3.21875 L 15.515625 -3.71875 L 15.9375 -6.75 L 11.625 -7.96875 C 11.195312 -6.457031 10.785156 -4.992188 10.390625 -3.578125 C 9.992188 -2.171875 9.625 -0.757812 9.28125 0.65625 L 16.421875 2.65625 L 18.25 -1.15625 Z M 20.75 -0.453125 "/></g></g></g><g fill="#763880" fill-opacity="1"><g transform="translate(228.880141, 94.316298)"><g><path d="M 16.140625 -6.734375 C 17.035156 -5.765625 17.726562 -4.851562 18.21875 -4 C 18.707031 -3.15625 19.035156 -2.359375 19.203125 -1.609375 C 19.367188 -0.859375 19.398438 -0.148438 19.296875 0.515625 C 19.203125 1.179688 19 1.8125 18.6875 2.40625 C 18.207031 3.300781 17.570312 4.023438 16.78125 4.578125 C 16 5.128906 15.101562 5.503906 14.09375 5.703125 C 13.09375 5.898438 12.015625 5.894531 10.859375 5.6875 C 9.703125 5.488281 8.507812 5.066406 7.28125 4.421875 C 6.113281 3.804688 5.03125 3.054688 4.03125 2.171875 C 3.03125 1.296875 2.242188 0.378906 1.671875 -0.578125 L 4.21875 -4.984375 L 6.765625 -3.640625 L 5.453125 0.359375 C 5.804688 0.835938 6.191406 1.269531 6.609375 1.65625 C 7.035156 2.050781 7.546875 2.398438 8.140625 2.703125 C 9.421875 3.390625 10.570312 3.628906 11.59375 3.421875 C 12.625 3.210938 13.398438 2.613281 13.921875 1.625 C 14.328125 0.851562 14.398438 0.109375 14.140625 -0.609375 C 13.878906 -1.328125 13.304688 -2.175781 12.421875 -3.15625 L 11.1875 -4.515625 C 9.71875 -6.128906 8.757812 -7.738281 8.3125 -9.34375 C 7.875 -10.957031 8.0625 -12.53125 8.875 -14.0625 C 9.320312 -14.925781 9.898438 -15.625 10.609375 -16.15625 C 11.328125 -16.695312 12.144531 -17.054688 13.0625 -17.234375 C 13.976562 -17.410156 14.972656 -17.40625 16.046875 -17.21875 C 17.117188 -17.039062 18.234375 -16.644531 19.390625 -16.03125 C 20.515625 -15.4375 21.5 -14.738281 22.34375 -13.9375 C 23.195312 -13.144531 23.851562 -12.300781 24.3125 -11.40625 L 21.890625 -7.3125 L 19.375 -8.640625 L 20.65625 -12.578125 C 20.332031 -12.953125 20 -13.28125 19.65625 -13.5625 C 19.320312 -13.851562 18.945312 -14.109375 18.53125 -14.328125 C 17.507812 -14.867188 16.507812 -15.054688 15.53125 -14.890625 C 14.5625 -14.734375 13.816406 -14.164062 13.296875 -13.1875 C 12.847656 -12.332031 12.78125 -11.503906 13.09375 -10.703125 C 13.40625 -9.898438 13.984375 -9.039062 14.828125 -8.125 Z M 16.140625 -6.734375 "/></g></g></g></svg>