<?xml version="1.0" standalone="no"?>
<!DOCTYPE svg PUBLIC "-//W3C//DTD SVG 20010904//EN"
 "http://www.w3.org/TR/2001/REC-SVG-20010904/DTD/svg10.dtd">
<svg version="1.0" xmlns="http://www.w3.org/2000/svg"
 width="16.000000pt" height="16.000000pt" viewBox="0 0 16.000000 16.000000"
 preserveAspectRatio="xMidYMid meet">

<g transform="translate(0.000000,16.000000) scale(0.100000,-0.100000)"
fill="#000000" stroke="none">
<path d="M30 130 c-57 -57 22 -144 86 -95 10 8 14 15 7 15 -6 0 -15 -4 -18
-10 -19 -31 -85 5 -85 47 0 38 67 72 85 43 3 -5 12 -10 18 -10 7 0 3 7 -7 15
-27 21 -62 19 -86 -5z"/>
<path d="M120 102 c0 -7 -16 -13 -37 -14 l-38 -1 35 -4 c19 -3 38 -10 42 -16
5 -8 9 -6 14 6 4 10 2 23 -5 30 -8 8 -11 8 -11 -1z"/>
</g>
</svg>
