<?xml version="1.0" standalone="no"?>
<!DOCTYPE svg PUBLIC "-//W3C//DTD SVG 20010904//EN"
 "http://www.w3.org/TR/2001/REC-SVG-20010904/DTD/svg10.dtd">
<svg version="1.0" xmlns="http://www.w3.org/2000/svg"
 width="16.000000pt" height="16.000000pt" viewBox="0 0 16.000000 16.000000"
 preserveAspectRatio="xMidYMid meet">

<g transform="translate(0.000000,16.000000) scale(0.100000,-0.100000)"
fill="#000000" stroke="none">
<path d="M56 134 c-9 -8 -16 -24 -16 -33 0 -10 -7 -24 -15 -31 -22 -18 -19
-50 4 -50 10 0 24 7 31 15 7 8 21 15 31 15 23 0 49 26 49 50 0 24 -26 50 -50
50 -10 0 -26 -7 -34 -16z m64 -9 c6 -8 10 -22 8 -31 -3 -17 -9 -21 -63 -45
-16 -7 -33 -15 -37 -17 -14 -7 -8 25 7 38 8 7 15 20 15 29 0 37 46 55 70 26z"/>
<path d="M90 110 c0 -5 5 -10 10 -10 6 0 10 5 10 10 0 6 -4 10 -10 10 -5 0
-10 -4 -10 -10z"/>
</g>
</svg>
