<?xml version="1.0" standalone="no"?>
<!DOCTYPE svg PUBLIC "-//W3C//DTD SVG 20010904//EN"
 "http://www.w3.org/TR/2001/REC-SVG-20010904/DTD/svg10.dtd">
<svg version="1.0" xmlns="http://www.w3.org/2000/svg"
 width="800.000000pt" height="600.000000pt" viewBox="0 0 800.000000 600.000000"
 preserveAspectRatio="xMidYMid meet">

<g transform="translate(0.000000,600.000000) scale(0.100000,-0.100000)"
fill="#000000" stroke="none">
<path d="M3395 4859 c-438 -64 -825 -365 -990 -770 -109 -269 -124 -553 -45
-839 27 -96 103 -255 170 -356 67 -100 232 -264 331 -331 l77 -50 -87 -33
c-698 -262 -1206 -887 -1316 -1618 -8 -56 -15 -104 -15 -107 0 -3 61 -5 135
-5 l134 0 6 38 c37 224 86 386 170 554 201 402 537 710 958 877 181 72 368
108 639 121 106 5 225 16 263 25 596 128 1015 640 1015 1240 0 436 -216 830
-588 1069 -141 91 -313 156 -482 182 -103 15 -280 17 -375 3z m445 -292 c294
-88 507 -269 635 -539 68 -144 89 -243 89 -418 0 -117 -4 -162 -22 -234 -24
-96 -90 -244 -143 -323 -151 -224 -397 -381 -663 -424 -108 -17 -320 -7 -421
21 -347 94 -609 360 -707 718 -32 116 -32 364 0 481 93 340 327 594 646 700
134 44 182 50 351 47 125 -3 164 -8 235 -29z"/>
<path d="M4686 2132 c-53 -48 -97 -91 -97 -95 0 -4 41 -40 91 -78 213 -165
381 -370 503 -614 84 -169 136 -333 167 -522 l12 -73 134 0 135 0 -5 33 c-3
17 -10 66 -17 107 -67 452 -322 904 -684 1217 -60 52 -117 99 -125 103 -12 7
-41 -13 -114 -78z"/>
</g>
</svg>
